SplineFontDB: 3.2
FontName: Scrawl
FullName: Scrawl
FamilyName: Scrawl
Weight: Regular
Copyright: Copyright (c) 2021, Peter Kvillegard
UComments: "2021-6-8: Created with FontForge (http://fontforge.org)"
Version: 001.000
ItalicAngle: 0
UnderlinePosition: -100
UnderlineWidth: 50
Ascent: 600
Descent: 400
InvalidEm: 0
LayerCount: 2
Layer: 0 0 "Back" 1
Layer: 1 0 "Fore" 0
XUID: [1021 1022 -1449038695 885243]
FSType: 0
OS2Version: 0
OS2_WeightWidthSlopeOnly: 0
OS2_UseTypoMetrics: 1
CreationTime: 1623171474
ModificationTime: 1624040713
PfmFamily: 17
TTFWeight: 400
TTFWidth: 5
LineGap: 90
VLineGap: 0
OS2TypoAscent: 0
OS2TypoAOffset: 1
OS2TypoDescent: 0
OS2TypoDOffset: 1
OS2TypoLinegap: 90
OS2WinAscent: 0
OS2WinAOffset: 1
OS2WinDescent: 0
OS2WinDOffset: 1
HheadAscent: 0
HheadAOffset: 1
HheadDescent: 0
HheadDOffset: 1
OS2Vendor: 'PfEd'
MarkAttachClasses: 1
DEI: 91125
LangName: 1033
Encoding: UnicodeFull
UnicodeInterp: none
NameList: AGL For New Fonts
DisplaySize: -48
AntiAlias: 1
FitToEm: 0
WinInfo: 0 38 14
BeginPrivate: 0
EndPrivate
BeginChars: 1114112 53

StartChar: A
Encoding: 65 65 0
Width: 540
Flags: HW
LayerCount: 2
Fore
SplineSet
194.094726562 358.333984375 m 0
 210.139648438 390.088867188 218.329101562 398.028320312 235.041992188 398.028320312 c 0
 246.741210938 398.028320312 259.977539062 395.220703125 265.125 391.647460938 c 0
 275.153320312 384.686523438 326.963867188 310.216796875 326.963867188 302.763671875 c 0
 326.963867188 295.776367188 408.8125 176.579101562 462.958007812 104.712890625 c 0
 489.401367188 69.615234375 510.807617188 36.904296875 510.807617188 31.59375 c 0
 510.807617188 26.2119140625 501.615234375 16.1005859375 489.916015625 8.61328125 c 0
 470.696289062 -3.6884765625 467.353515625 -3.6884765625 448.133789062 8.61328125 c 0
 436.434570312 16.1005859375 427.2421875 25.2919921875 427.2421875 29.50390625 c 0
 427.2421875 33.58984375 414.836914062 52.484375 400.083984375 70.869140625 c 0
 385.331054688 89.25390625 363.381835938 118.073242188 352.033203125 133.9609375 c 0
 332.28125 161.61328125 328.634765625 163.18359375 285.180664062 162.735351562 c 0
 213.314453125 161.994140625 168.823242188 157.299804688 155 133 c 0
 126.953125 83.6962890625 90.466796875 -0.10546875 91.267578125 -21.470703125 c 0
 91.95703125 -39.85546875 87.66796875 -45.9794921875 71.25390625 -50.0498046875 c 0
 32.1240234375 -59.75390625 12.3359375 -14.78515625 34.041015625 34.5185546875 c 0
 48.388671875 67.1083984375 157.20703125 289.885742188 166.701171875 306.10546875 c 0
 170.717773438 312.966796875 183.1171875 336.607421875 194.094726562 358.333984375 c 0
266.796875 256.384765625 m 0
 256.825195312 269.754882812 245.352539062 281.036132812 241.7265625 281.036132812 c 0
 234.206054688 281.036132812 205.26171875 238.052734375 210 234 c 0
 215.013671875 229.711914062 285.180664062 224.615234375 285.180664062 228.389648438 c 0
 285.180664062 230.203125 276.767578125 243.013671875 266.796875 256.384765625 c 0
11.921875 64.6015625 m 1024
EndSplineSet
EndChar

StartChar: B
Encoding: 66 66 1
Width: 478
Flags: HW
LayerCount: 2
Fore
SplineSet
203.370117188 529.504882812 m 0
 276.908203125 555.896484375 334.09765625 551.81640625 361.212890625 518.245117188 c 0
 393.155273438 478.697265625 383.694335938 431.336914062 328.993164062 356.963867188 c 0
 313.013671875 335.236328125 312.552734375 331.389648438 324.540039062 319.77734375 c 0
 332.061523438 312.491210938 341.383789062 306.82421875 345.849609375 306.82421875 c 0
 350.208007812 306.82421875 371.064453125 287.604492188 392.096679688 264.206054688 c 0
 459.391601562 189.340820312 461.248046875 126.323242188 398.3984375 50.2783203125 c 0
 351.021484375 -7.044921875 303.649414062 -16.404296875 199.192382812 10.921875 c 0
 139.025390625 26.6611328125 138.189453125 26.5029296875 138.189453125 -0.6962890625 c 0
 138.189453125 -27.4375 124.690429688 -44.150390625 103.091796875 -44.150390625 c 0
 87.005859375 -44.150390625 85.1181640625 -36.6298828125 87.9892578125 16.0166015625 c 0
 89.12890625 36.908203125 86.0048828125 47.771484375 78.8583984375 47.771484375 c 0
 62.17578125 47.771484375 37.9111328125 74.5126953125 37.9111328125 92.896484375 c 0
 37.9111328125 101.810546875 46.294921875 118.384765625 55.876953125 128.412109375 c 0
 72.859375 146.184570312 73.3173828125 150.556640625 64.234375 208.216796875 c 0
 58.9677734375 241.643554688 48.390625 293.774414062 40.8359375 323.538085938 c 0
 27.259765625 377.01953125 27.3583984375 378.498046875 47.2861328125 419.637695312 c 0
 70.3818359375 467.3203125 112.284179688 496.815429688 203.370117188 529.504882812 c 0
121.633789062 267.548828125 m 24
 129 196 142.857421875 88.59375 148.216796875 86.1630859375 c 0
 175.491210938 73.794921875 225.09765625 62.59765625 270.22265625 58.625 c 0
 325.375976562 53.7685546875 327.80078125 54.3828125 352.66796875 79.5263671875 c 0
 392.046875 119.342773438 394.204101562 141.365234375 363.147460938 186.490234375 c 0
 331.515625 232.451171875 276.760742188 261.15234375 244.317382812 248.776367188 c 0
 226.724609375 242.06640625 219.86328125 244.568359375 200.86328125 264.624023438 c 0
 181.86328125 284.6796875 179.751953125 291.079101562 187.493164062 305.153320312 c 0
 192.629882812 314.493164062 209.219726562 326.044921875 225.09765625 331.336914062 c 0
 255.180664062 341.365234375 322.033203125 422.432617188 322.033203125 448.885742188 c 0
 322.033203125 456.685546875 312.423828125 467.42578125 300.724609375 472.702148438 c 0
 289.025390625 477.978515625 278.661132812 482.176757812 277.744140625 482.012695312 c 0
 247.66015625 476.620117188 141.115234375 426.2265625 114.791015625 404.94140625 c 0
 102.255859375 394.805664062 116 321 121.633789062 267.548828125 c 24
EndSplineSet
EndChar

StartChar: C
Encoding: 67 67 2
Width: 541
Flags: HW
LayerCount: 2
Fore
SplineSet
189.640625 328.915039062 m 0
 253.986328125 338.700195312 259.14453125 338.283203125 294.09765625 320.470703125 c 0
 329.1953125 302.584960938 335.461914062 287.756835938 314.989257812 271.04296875 c 0
 306.21484375 263.880859375 299.111328125 263.727539062 286.576171875 270.432617188 c 0
 248.13671875 290.993164062 144.776367188 273.255859375 107.74609375 239.7421875 c 0
 73.7353515625 208.961914062 106.075195312 135.180664062 179.61328125 75.78515625 c 0
 236.177734375 30.09765625 250.643554688 25.4921875 349.250976562 21.779296875 c 0
 422.788085938 19.009765625 446.4375 20.9912109375 467.49609375 31.6884765625 c 0
 485.879882812 41.0263671875 495.494140625 42.2861328125 499.373046875 35.8662109375 c 0
 508.318359375 21.0595703125 487.133789062 -9.1220703125 458.721679688 -22.05078125 c 0
 423.504882812 -38.0751953125 277.384765625 -38.1572265625 231.423828125 -22.1787109375 c 0
 189.640625 -7.6533203125 122.568359375 38.1279296875 99.8583984375 67.62109375 c 0
 90.2060546875 80.15625 79.513671875 93.091796875 76.8271484375 95.4814453125 c 0
 43.91015625 124.778320312 25.365234375 216.368164062 44.9052734375 253.13671875 c 0
 62.962890625 287.115234375 123.624023438 318.875976562 189.640625 328.915039062 c 0
EndSplineSet
EndChar

StartChar: D
Encoding: 68 68 3
Width: 467
Flags: HW
LayerCount: 2
Fore
SplineSet
178.141601562 484.4609375 m 0
 255.022460938 508.05859375 348.157226562 480.590820312 405.158203125 417.509765625 c 0
 433.348632812 386.311523438 433.852539062 384.500976562 433.852539062 314.306640625 c 0
 433.852539062 257.481445312 430.104492188 235.673828125 415.541015625 207.760742188 c 0
 374.673828125 129.432617188 266.721679688 51.6005859375 165.607421875 27.5615234375 c 0
 128.838867188 18.8203125 121.755859375 14.017578125 119.571289062 -3.66015625 c 0
 116.885742188 -25.38671875 92.1220703125 -36.302734375 77.86328125 -22.044921875 c 0
 73.3310546875 -17.51171875 68.14453125 8.875 66.529296875 35.615234375 c 0
 56.080078125 208.595703125 52.884765625 241.491210938 42.658203125 281.297851562 c 0
 36.21875 306.368164062 32.923828125 329.39453125 35.2451171875 333.108398438 c 0
 37.515625 336.7421875 43.810546875 357.342773438 49.033203125 378.234375 c 0
 56.958984375 409.9375 65.74609375 421.580078125 99.1728515625 444.668945312 c 0
 121.735351562 460.252929688 156.7421875 477.893554688 178.141601562 484.4609375 c 0
290.955078125 414.724609375 m 0
 269.44921875 423.040039062 221.595703125 423.986328125 192.348632812 416.673828125 c 0
 183.126953125 414.369140625 159.33984375 401.0703125 139.284179688 387.008789062 c 2
 102.93359375 361.520507812 l 1
 107.947265625 318.90234375 l 2
 110.709960938 295.415039062 115.399414062 234.083984375 118.392578125 182.2734375 c 2
 123.82421875 88.26171875 l 1
 145.551757812 88.26171875 l 2
 209.896484375 88.26171875 323.8515625 160.592773438 354.880859375 221.130859375 c 0
 366.3984375 243.602539062 372.013671875 270.852539062 372.013671875 304.278320312 c 0
 372.013671875 351.075195312 370.244140625 355.548828125 341.930664062 380.323242188 c 0
 325.216796875 394.947265625 302.561523438 410.236328125 290.955078125 414.724609375 c 0
EndSplineSet
EndChar

StartChar: E
Encoding: 69 69 4
Width: 473
Flags: HW
LayerCount: 2
Fore
SplineSet
145.345703125 414.830078125 m 0
 159.159179688 415.981445312 225.568359375 416.918945312 293.255859375 416.918945312 c 0
 383.506835938 416.918945312 418.936523438 414.037109375 426.798828125 406.055664062 c 0
 454.052734375 378.388671875 372.643554688 355.426757812 216.375976562 346.705078125 c 0
 158.715820312 343.486328125 107.80078125 338.44140625 102.7265625 335.443359375 c 0
 96.2998046875 331.645507812 96.048828125 314.551757812 101.891601562 278.618164062 c 2
 110.248046875 227.225585938 l 1
 146.180664062 232.09765625 l 2
 253.14453125 246.6015625 312.66015625 247.775390625 322.896484375 235.58203125 c 0
 350.126953125 203.145507812 309.969726562 180.69921875 205.512695312 169.969726562 c 0
 98.548828125 158.982421875 89.650390625 152.010742188 109 94.3564453125 c 0
 128.631835938 35.8603515625 128.631835938 35.8603515625 262.336914062 54.34375 c 0
 356.765625 67.396484375 394.305664062 50.875 363.190429688 9.955078125 c 0
 355.8046875 0.2431640625 332.950195312 -7.8994140625 298.688476562 -13.025390625 c 0
 269.440429688 -17.400390625 223.87109375 -24.943359375 197.15625 -29.830078125 c 0
 144.509765625 -39.4599609375 93.322265625 -30.962890625 70.9716796875 -8.8818359375 c 0
 47.75390625 14.056640625 38.3056640625 64.2734375 35.828125 177.921875 c 0
 34.4794921875 239.760742188 31.4794921875 295.266601562 29.189453125 300.763671875 c 0
 26.9306640625 306.18359375 30.38671875 317.89453125 36.7099609375 326.250976562 c 0
 43.1259765625 334.728515625 48.5986328125 353.409179688 48.8271484375 367.615234375 c 0
 49.201171875 390.778320312 53.005859375 394.538085938 84.7607421875 403.130859375 c 0
 103.98046875 408.33203125 131.778320312 413.69921875 145.345703125 414.830078125 c 0
EndSplineSet
EndChar

StartChar: F
Encoding: 70 70 5
Width: 516
Flags: HW
LayerCount: 2
Fore
SplineSet
375.493164062 521.470703125 m 0
 377.537109375 523.514648438 396.801757812 525.231445312 417.693359375 525.231445312 c 0
 461.983398438 525.231445312 488.3828125 510.274414062 484.068359375 487.626953125 c 0
 481.776367188 475.59375 471.17578125 471.975585938 431.064453125 469.536132812 c 0
 373.404296875 466.029296875 352.655273438 463.208007812 334.963867188 456.46875 c 0
 328.102539062 453.85546875 286.49609375 447.34375 243.041992188 442.083984375 c 0
 199.587890625 436.823242188 160.439453125 429.258789062 156.551757812 425.370117188 c 0
 152.735351562 421.553710938 155.248046875 405.314453125 161.983398438 390.2734375 c 0
 168.958984375 374.693359375 181.002929688 340.969726562 189.141601562 314.228515625 c 0
 197.280273438 287.487304688 199.745117188 276 203 276 c 0
 206.079101562 276 216 277 230.670898438 279.055664062 c 0
 242.225585938 280.674804688 278.780273438 292.349609375 298 295 c 0
 334.76953125 300.071289062 387.125 285.946289062 408 277 c 0
 415 274 417 274 422.708007812 271.975585938 c 0
 437.030273438 266.896484375 446.830078125 248.708007812 433.571289062 240.57421875 c 0
 428.05859375 237.193359375 391.370117188 236.116210938 352.094726562 238.18359375 c 0
 312.819335938 240.250976562 263.901367188 238.93359375 243.459960938 235.258789062 c 2
 206.2734375 228.57421875 l 1
 208.374023438 182.61328125 l 2
 210.7421875 130.801757812 223.86328125 82.333984375 235.520507812 82.333984375 c 0
 249.8984375 82.333984375 242.974609375 35.5380859375 225.876953125 17.1533203125 c 0
 216.551757812 7.125 205.741210938 -1.2314453125 202.094726562 -1.2314453125 c 0
 186.857421875 -1.2314453125 165.990234375 33.0302734375 162.904296875 63.1142578125 c 0
 151.163085938 177.598632812 140.514648438 242.499023438 127.532226562 278.712890625 c 0
 101.768554688 350.579101562 72.255859375 406.840820312 58.3623046875 410.576171875 c 0
 41.6494140625 415.068359375 30.90234375 456.55078125 42.73046875 470.9140625 c 0
 47.63671875 476.87109375 75.0751953125 484.418945312 103.487304688 487.626953125 c 0
 131.899414062 490.834960938 162.845703125 494.796875 172.010742188 496.401367188 c 0
 181.168945312 498.00390625 230.088867188 503.481445312 280.228515625 508.518554688 c 0
 330.368164062 513.5546875 373.432617188 519.41015625 375.493164062 521.470703125 c 0
EndSplineSet
EndChar

StartChar: G
Encoding: 71 71 6
Width: 534
Flags: HW
LayerCount: 2
Fore
SplineSet
202.200195312 427.541992188 m 0
 239.5703125 446.434570312 254.846679688 449.4765625 299.971679688 447.008789062 c 0
 345.93359375 444.495117188 356.274414062 440.734375 373.509765625 420.267578125 c 0
 388.288085938 402.71875 392.169921875 390.733398438 388.263671875 374.724609375 c 0
 376.4375 326.255859375 342.590820312 300.24609375 342.590820312 339.626953125 c 0
 342.590820312 404.84765625 217.998046875 374.724609375 159.403320312 295.336914062 c 0
 105.7421875 222.634765625 100.557617188 174.208007812 141.688476562 129.876953125 c 0
 150.993164062 119.849609375 158.74609375 109.213867188 158.74609375 106.479492188 c 0
 158.74609375 103.682617188 177.966796875 92.51953125 202.200195312 81.240234375 c 0
 269.052734375 50.1240234375 375.610351562 55.3779296875 409.047851562 91.4375 c 0
 423.512695312 107.036132812 424.020507812 111.493164062 413.62109375 131.548828125 c 0
 407.205078125 143.921875 390.22265625 159.017578125 376.016601562 164.974609375 c 0
 353.8125 174.286132812 345.93359375 173.58203125 320.86328125 160.044921875 c 0
 285.716796875 141.065429688 264.540039062 150.768554688 260.86328125 187.538085938 c 0
 257.840820312 217.760742188 284.930664062 244.537109375 325.876953125 251.801757812 c 0
 362.646484375 258.325195312 447.19921875 220.833007812 474.57421875 185.866210938 c 0
 495.741210938 158.830078125 498.40234375 110.657226562 481.038085938 68.875 c 0
 455.295898438 6.93359375 323.370117188 -29.46875 213.064453125 -5.068359375 c 0
 158.74609375 6.947265625 150.8671875 11.6318359375 102.7578125 60.5185546875 c 0
 73.9736328125 89.765625 49.20703125 121.70703125 47.0322265625 132.384765625 c 0
 34.435546875 194.22265625 34.859375 209.579101562 50.3076171875 251.046875 c 0
 73.96875 314.556640625 147.33203125 399.802734375 202.200195312 427.541992188 c 0
EndSplineSet
EndChar

StartChar: H
Encoding: 72 72 7
Width: 400
Flags: HW
LayerCount: 2
Fore
SplineSet
254.953125 461.140625 m 4
 271.666015625 468.083007812 292.717773438 467.50390625 297.056640625 459.983398438 c 4
 299.189453125 456.287109375 304.993164062 421.54296875 310.0390625 382.267578125 c 4
 325.391601562 262.768554688 337.01953125 208.336914062 349.381835938 198.106445312 c 4
 365.237304688 184.984375 364.423828125 166.456054688 347.709960938 160.07421875 c 4
 336.961914062 155.970703125 335.323242188 146.61328125 339.353515625 112.350585938 c 4
 342.09765625 89.03125 349.4765625 49.6767578125 355.649414062 25.443359375 c 4
 365.440429688 -12.9970703125 365.296875 -20.501953125 354.564453125 -31.3818359375 c 4
 323.297851562 -63.0771484375 299.196289062 -18.0107421875 287.079101562 94.8017578125 c 4
 284.1171875 122.37890625 279.020507812 149.078125 275.75390625 154.133789062 c 4
 269.229492188 164.231445312 153.838867188 175.358398438 127.09765625 168.467773438 c 4
 112.456054688 164.6953125 110.384765625 157.89453125 110.384765625 113.604492188 c 4
 110.384765625 77.6708984375 114.493164062 58.455078125 124.590820312 47.169921875 c 4
 138.151367188 32.0146484375 137.9609375 30.4755859375 120.412109375 13.326171875 c 6
 102.028320312 -4.640625 l 5
 79.046875 12.490234375 l 5
 56.06640625 29.62109375 l 5
 53.9775390625 149.955078125 l 6
 52.83203125 215.971679688 48.3046875 306.124023438 43.9501953125 349.676757812 c 4
 36.6796875 422.37890625 37.3486328125 430.401367188 51.888671875 444.94140625 c 4
 86.1689453125 479.221679688 97.013671875 449.955078125 107.3203125 295.359375 c 4
 109.493164062 262.768554688 111.959960938 236.493164062 112.891601562 236.028320312 c 4
 113.8125 235.567382812 149.2421875 232.942382812 191.860351562 230.178710938 c 6
 269.159179688 225.1640625 l 5
 264.5625 272.796875 l 6
 262.063476562 298.702148438 256.376953125 338.725585938 252.096679688 360.540039062 c 4
 241.275390625 415.693359375 242.41796875 455.93359375 254.953125 461.140625 c 4
EndSplineSet
EndChar

StartChar: I
Encoding: 73 73 8
Width: 184
Flags: HW
LayerCount: 2
Fore
SplineSet
40.7412109375 354.61328125 m 0
 47.5712890625 362.53515625 58.7080078125 364.9140625 72.9140625 361.485351562 c 0
 100.107421875 354.920898438 99.51953125 355.866210938 107.643554688 305.7265625 c 0
 138.245117188 116.869140625 147.282226562 -12.78515625 130.57421875 -23.2587890625 c 0
 114.823242188 -33.1318359375 98.30078125 -6.8076171875 93.4990234375 35.810546875 c 0
 90.9306640625 58.6015625 83.4736328125 98.484375 77.091796875 123.5546875 c 0
 70.7109375 148.624023438 62.923828125 188.5078125 59.9609375 211.297851562 c 0
 57.0166015625 233.946289062 48.98046875 273.5546875 42.412109375 297.788085938 c 0
 32.673828125 333.721679688 32.345703125 344.874023438 40.7412109375 354.61328125 c 0
EndSplineSet
EndChar

StartChar: J
Encoding: 74 74 9
Width: 414
Flags: HW
LayerCount: 2
Fore
SplineSet
225.123046875 440.634765625 m 0
 241.463867188 456.9765625 246.849609375 456.395507812 273.590820312 435.405273438 c 0
 297.856445312 416.358398438 339.075195312 332.8359375 357.61328125 265.147460938 c 0
 374.55078125 203.309570312 381.124023438 90.6416015625 370.193359375 49.548828125 c 0
 355.037109375 -7.427734375 312.866210938 -33.7421875 237.657226562 -33.1552734375 c 0
 165.573242188 -32.591796875 112.977539062 2.751953125 64.84375 82.974609375 c 0
 48.2978515625 110.551757812 36.3779296875 141.514648438 36.5341796875 156.512695312 c 0
 36.830078125 184.924804688 53.4404296875 210.830078125 71.3623046875 210.830078125 c 0
 78.046875 210.830078125 87.0009765625 214.76953125 92.25390625 220.022460938 c 0
 102.830078125 230.598632812 136.54296875 221.693359375 136.54296875 208.323242188 c 0
 136.54296875 203.216796875 126.88671875 189.103515625 114.81640625 176.568359375 c 2
 93.0888671875 154.005859375 l 1
 116.244140625 111.38671875 l 2
 171.633789062 9.4375 298.1328125 -3.73046875 316.939453125 90.49609375 c 0
 330.282226562 157.348632812 281.151367188 325.684570312 228.892578125 392.166992188 c 0
 208.530273438 418.072265625 208.098632812 423.611328125 225.123046875 440.634765625 c 0
EndSplineSet
EndChar

StartChar: K
Encoding: 75 75 10
Width: 488
Flags: HW
LayerCount: 2
Fore
SplineSet
51.6708984375 434.657226562 m 0
 52.130859375 435.806640625 60.0283203125 436.74609375 69.2197265625 436.74609375 c 0
 101.9140625 436.74609375 110.474609375 408.333984375 105.982421875 314.741210938 c 0
 103.615234375 265.4375 105.064453125 227.833007812 109.331054688 227.833007812 c 0
 113.62890625 227.833007812 123.657226562 235.353515625 132.729492188 245.381835938 c 0
 141.5234375 255.100585938 172.840820312 279.177734375 202.924804688 299.34765625 c 0
 287.326171875 355.934570312 297.639648438 363.254882812 317.409179688 380.604492188 c 0
 333.5546875 394.772460938 339.971679688 395.93359375 357.520507812 387.860351562 c 0
 369.219726562 382.479492188 378.412109375 373.103515625 378.412109375 366.551757812 c 0
 378.412109375 351.672851562 336.629882812 315.616210938 275.626953125 277.852539062 c 0
 224.651367188 246.296875 212.415039062 229.741210938 234.6796875 222.454101562 c 0
 242.493164062 219.897460938 278.969726562 203.703125 315.73828125 186.467773438 c 0
 387.604492188 152.780273438 416.4765625 122.420898438 440.111328125 55.6884765625 c 0
 450.469726562 26.4404296875 450.189453125 18.60546875 437.8671875 -6.986328125 c 0
 418.06640625 -48.111328125 401.810546875 -43.7548828125 387.979492188 6.384765625 c 0
 371.865234375 64.7978515625 345.821289062 88.609375 241.365234375 140.436523438 c 0
 163.649414062 178.995117188 149.431640625 183.58984375 138.997070312 173.515625 c 0
 132.311523438 167.060546875 121.448242188 163.876953125 114.763671875 166.412109375 c 0
 104.473632812 170.315429688 102.646484375 155.130859375 102.646484375 65.7158203125 c 0
 102.646484375 -32.8916015625 101.637695312 -39.576171875 86.7685546875 -39.576171875 c 0
 65.0419921875 -39.576171875 33.8935546875 -0.0224609375 40.046875 19.7548828125 c 0
 42.771484375 28.5126953125 46.2978515625 124.629882812 47.9111328125 234.100585938 c 0
 49.5244140625 343.571289062 51.2099609375 433.504882812 51.6708984375 434.657226562 c 0
EndSplineSet
EndChar

StartChar: L
Encoding: 76 76 11
Width: 540
Flags: HW
LayerCount: 2
Fore
SplineSet
45.6826171875 416.8359375 m 0
 66.57421875 437.7265625 78.08984375 438.48828125 98.3291015625 420.314453125 c 0
 108.234375 411.419921875 113.512695312 395.108398438 113.788085938 372.545898438 c 0
 114.018554688 353.702148438 119.659179688 308.200195312 126.323242188 271.431640625 c 0
 132.987304688 234.663085938 138.440429688 191.041992188 138.440429688 174.49609375 c 0
 138.440429688 157.990234375 142.77734375 123.103515625 148.049804688 97.1982421875 c 0
 156.21484375 57.0859375 159.986328125 50.6748046875 173.120117188 54.5791015625 c 0
 181.58203125 57.0947265625 206.545898438 60.8779296875 228.2734375 62.935546875 c 0
 250.500976562 65.0419921875 286.350585938 68.294921875 309.749023438 70.330078125 c 0
 369.081054688 75.4892578125 421.478515625 83.4287109375 455.153320312 92.36328125 c 0
 471.866210938 96.796875 487.624023438 96.8994140625 491.921875 92.6015625 c 0
 507.930664062 76.59375 491.921875 56.68359375 447.631835938 37.5166015625 c 0
 379.944335938 8.224609375 371.435546875 5.4775390625 340.668945312 2.9833984375 c 0
 324.791015625 1.6962890625 307.83203125 -3.0068359375 302.228515625 -7.6767578125 c 0
 296.790039062 -12.208984375 280.918945312 -15.6513671875 267.548828125 -15.1982421875 c 0
 254.076171875 -14.7412109375 210.306640625 -17.3935546875 171.030273438 -21.046875 c 0
 119.219726562 -25.8671875 97.4150390625 -24.9345703125 92.896484375 -17.705078125 c 0
 89.455078125 -12.197265625 83.427734375 38.2841796875 79.5263671875 94.2734375 c 0
 75.6259765625 150.26171875 66.9609375 216.943359375 60.306640625 242.18359375 c 0
 53.697265625 267.25390625 45.5302734375 307.13671875 42.33984375 329.927734375 c 0
 39.064453125 353.326171875 34.8359375 377.9609375 32.7294921875 385.916015625 c 0
 30.6611328125 393.729492188 36.490234375 407.643554688 45.6826171875 416.8359375 c 0
EndSplineSet
EndChar

StartChar: M
Encoding: 77 77 12
Width: 576
Flags: HW
LayerCount: 2
Fore
SplineSet
300.607421875 397.852539062 m 0
 347.72265625 429.833007812 415.934570312 408.852539062 465.889648438 347.013671875 c 0
 534.28125 262.354492188 548.888671875 204.953125 533.938476562 79.6044921875 c 0
 524.470703125 0.216796875 512.575195312 -29.21484375 494.479492188 -18.0244140625 c 0
 479.510742188 -8.767578125 468.634765625 57.0419921875 476.411132812 91.3037109375 c 0
 494.80859375 172.362304688 450.54296875 293.352539062 390.858398438 325.141601562 c 0
 361.610351562 340.719726562 360.147460938 340.7578125 338.211914062 326.540039062 c 0
 325.698242188 318.4296875 305.227539062 289.771484375 292.250976562 262.1953125 c 0
 279.2734375 234.618164062 258.989257812 204.657226562 246.708007812 194.924804688 c 0
 225.81640625 178.369140625 223.6640625 178.1796875 208.685546875 191.58203125 c 0
 197.810546875 201.3125 193.333984375 215.3984375 194.479492188 236.290039062 c 0
 195.990234375 263.866210938 193.987304688 267.03125 173.587890625 269.297851562 c 0
 161.052734375 270.690429688 143.96875 268.017578125 135.147460938 263.282226562 c 0
 100.927734375 244.9140625 85.857421875 113.030273438 111.963867188 60.384765625 c 0
 130.196289062 23.615234375 127.950195312 4.244140625 104.228515625 -6.33984375 c 0
 87.515625 -13.7958984375 80.1611328125 -12.8056640625 67.4599609375 -1.38671875 c 0
 44.9404296875 18.857421875 29.4647779753 163.540182097 41.1455078125 217.487304688 c 0
 51 263 52 265 66.6240234375 300.634765625 c 0
 71.1150945981 311.578283932 85.84375 326.305664062 100.885742188 334.061523438 c 0
 122.908203125 345.416015625 135.147460938 346.30078125 170.245117188 339.075195312 c 0
 193.643554688 334.2578125 219.458984375 327.8515625 227.487304688 324.869140625 c 0
 236.6796875 321.455078125 242.204101562 323.783203125 242.360351562 331.13671875 c 0
 242.649414062 344.724609375 272.1953125 378.56640625 300.607421875 397.852539062 c 0
EndSplineSet
EndChar

StartChar: N
Encoding: 78 78 13
Width: 454
Flags: HW
LayerCount: 2
Fore
SplineSet
324.991210938 439.54296875 m 0
 337.693359375 462.94140625 345.130859375 468.290039062 362.178710938 466.284179688 c 0
 381.9375 463.959960938 383.517578125 460.434570312 383.905273438 417.81640625 c 0
 384.133789062 392.658203125 391.509765625 335.921875 400.200195312 292.467773438 c 0
 410.015625 243.392578125 416.237304688 177.983398438 416.49609375 121.159179688 c 0
 416.868164062 39.2646484375 414.725585938 25.7724609375 396.858398438 -2.5185546875 c 0
 383.663085938 -23.4091796875 372.657226562 -32.7001953125 364.685546875 -29.6767578125 c 0
 358.076171875 -27.169921875 344.211914062 -22.9912109375 334.18359375 -20.484375 c 0
 323.392578125 -17.787109375 307.515625 -0.0107421875 295.744140625 22.5517578125 c 0
 284.6015625 43.9072265625 243.747070312 94.41796875 203.821289062 136.200195312 c 2
 131.955078125 211.409179688 l 1
 133.443359375 106.1171875 l 2
 135.026367188 -5.8603515625 129.543945312 -23.2392578125 96.0224609375 -12.5126953125 c 0
 77.6826171875 -6.6435546875 72.1572265625 15.0302734375 70.466796875 87.732421875 c 0
 69.22265625 141.21484375 50.33984375 270.024414062 37.0224609375 315.866210938 c 0
 27.7978515625 347.62109375 32.669921875 364.799804688 54.2392578125 376.565429688 c 0
 65.974609375 382.966796875 75.130859375 381.938476562 89.3369140625 372.625976562 c 0
 109.392578125 359.478515625 145.326171875 315.005859375 145.326171875 303.331054688 c 0
 145.326171875 299.672851562 183.348632812 259.19140625 229.309570312 213.916015625 c 0
 275.270507812 168.641601562 319.53515625 120.404296875 327.081054688 107.370117188 c 0
 334.821289062 94 344.16796875 83.5546875 348.389648438 83.5546875 c 0
 358.895507812 83.5546875 348.71875 192.189453125 327.01953125 311.688476562 c 0
 309.41796875 408.624023438 309.383789062 410.791015625 324.991210938 439.54296875 c 0
EndSplineSet
EndChar

StartChar: O
Encoding: 79 79 14
Width: 496
Flags: HW
LayerCount: 2
Fore
SplineSet
218.294921875 371.649414062 m 0
 262.057617188 383.127929688 325.258789062 374.021484375 377.069335938 348.772460938 c 0
 413.002929688 331.259765625 427.16015625 318.350585938 441.956054688 289.604492188 c 0
 465.612304688 243.643554688 466.638671875 183.485351562 444.508789062 140.022460938 c 0
 427.063476562 105.760742188 355.469726562 30.5517578125 340.30078125 30.5517578125 c 0
 335.245117188 30.5517578125 316.06640625 22.515625 297.682617188 12.693359375 c 0
 247.54296875 -14.0927734375 173.201171875 -17.654296875 126.373046875 4.4873046875 c 0
 74.9775390625 28.7890625 51.294921875 66.484375 40.701171875 140.858398438 c 0
 23.0830078125 264.53515625 60.7666015625 340.154296875 148.100585938 356.373046875 c 0
 170.663085938 360.563476562 202.178710938 367.421875 218.294921875 371.649414062 c 0
350.329101562 296.229492188 m 0
 335.287109375 305.37890625 313.635742188 315.662109375 302.696289062 318.852539062 c 0
 283.40234375 324.479492188 282.815429688 323.448242188 287.236328125 291.693359375 c 0
 289.796875 273.309570312 288.8828125 253.872070312 285.174804688 247.821289062 c 0
 277.33203125 235.025390625 260.078125 243.643554688 260.078125 260.356445312 c 0
 260.078125 281.931640625 218.294921875 294.567382812 158.963867188 290.934570312 c 0
 142.3828125 289.919921875 134.0078125 282.083984375 123.6015625 257.849609375 c 0
 93.1025390625 186.819335938 98.724609375 118.166992188 138.072265625 81.1328125 c 0
 155.481445312 64.748046875 167.3203125 61.5849609375 209.103515625 62.1552734375 c 0
 316.06640625 63.615234375 403.810546875 131.091796875 403.810546875 211.888671875 c 0
 403.810546875 246.69921875 386.26171875 274.373046875 350.329101562 296.229492188 c 0
EndSplineSet
EndChar

StartChar: P
Encoding: 80 80 15
Width: 410
Flags: HW
LayerCount: 2
Fore
SplineSet
162.356445312 473.26171875 m 0
 200.796875 480.52734375 280.536132812 469.271484375 316.953125 451.438476562 c 0
 377.8515625 421.616210938 386.549804688 374.618164062 346.015625 294.395507812 c 0
 310.548828125 224.200195312 245.583007812 179.0546875 195.783203125 189.99609375 c 0
 183.090820312 192.784179688 162.516674595 207.585995016 146.479492188 221.275390625 c 2
 114 249 l 1
 121.409179688 120.161132812 l 2
 127.405500396 15.890592765 120.745117188 -9.611328125 110.127929688 -20.228515625 c 0
 99.642578125 -30.7138671875 93.8330078125 -31.4072265625 79.626953125 -23.869140625 c 0
 61.3251953125 -14.158203125 57.271484375 6.9306640625 61.017578125 72.947265625 c 0
 62.068359375 91.4833984375 58.7470703125 147.3203125 53.5615234375 198.294921875 c 0
 33.9208984375 391.331054688 34.01953125 394.1796875 61.2421875 420.44140625 c 0
 87.0625 445.350585938 128.094726562 466.78515625 162.356445312 473.26171875 c 0
281.85546875 395.350585938 m 0
 260.127929688 403.627929688 182.615234375 404.80078125 162.356445312 397.159179688 c 0
 105.532226562 375.725585938 84.009765625 326.401367188 124.751953125 310.977539062 c 0
 136.657226562 306.470703125 160.267578125 289.341796875 176.98046875 273.0859375 c 0
 201.21484375 249.516601562 211.946289062 244.522460938 229.208984375 248.782226562 c 0
 259.041992188 256.143554688 279.681640625 276.846679688 298.006835938 317.793945312 c 0
 316.70703125 359.576171875 311.618164062 384.012695312 281.85546875 395.350585938 c 0
EndSplineSet
EndChar

StartChar: Q
Encoding: 81 81 16
Width: 644
Flags: HW
LayerCount: 2
Fore
SplineSet
240.98046875 494.75 m 0
 306.161132812 511.846679688 368.721679688 514.368164062 393.905273438 500.9140625 c 0
 404.13671875 495.447265625 433.598632812 472.5625 460.33984375 449.309570312 c 0
 493.765625 420.243164062 507.118164062 403.203125 504.211914062 393.3203125 c 0
 502 385.799804688 506.325195312 373.861328125 513.404296875 367.952148438 c 0
 547.850585938 339.193359375 580.084960938 216.997070312 571.299804688 148.473632812 c 0
 566.799804688 113.375976562 568.556640625 105.735351562 583.598632812 94.9912109375 c 0
 594.209960938 87.412109375 600.15625 75.353515625 598.640625 64.490234375 c 0
 596.482421875 49.025390625 591.538085938 46.814453125 563.125 48.61328125 c 0
 536.384765625 50.3056640625 525.357421875 46.1826171875 505.046875 26.9013671875 c 0
 470.651367188 -5.751953125 454.072265625 -13.33203125 401.42578125 -20.470703125 c 0
 358.807617188 -26.2490234375 243.495117188 -6.1689453125 232.650390625 8.9189453125 c 0
 230.295898438 12.1953125 214.657226562 21.203125 197.108398438 29.392578125 c 0
 179.559570312 37.58203125 157.499023438 52.8408203125 146.969726562 64.072265625 c 0
 136.78515625 74.935546875 124.336914062 84.1279296875 119.810546875 84.1279296875 c 0
 106.642578125 84.1279296875 61.1259765625 134.267578125 44.7080078125 166.858398438 c 0
 31.986328125 192.11328125 31.462890625 203.626953125 40.005859375 270.479492188 c 0
 45.3447265625 312.26171875 54.9326171875 358.315429688 61.5791015625 374.100585938 c 0
 84.1298828125 427.659179688 147.38671875 470.200195312 240.98046875 494.75 c 0
387 437 m 0
 366.536132812 453.180664062 346.2734375 457.385742188 282.763671875 446.801757812 c 0
 185.827148438 430.646484375 162.155273438 419.456054688 134.275390625 376.607421875 c 0
 78.2724609375 290.53515625 76.232421875 205.973632812 129.002929688 158.049804688 c 0
 184.991210938 107.202148438 217.69921875 82.8740234375 245.994140625 71.029296875 c 0
 263.54296875 63.68359375 291.3125 51.4091796875 306.161132812 44.4345703125 c 0
 329.868164062 33.2998046875 340.423828125 32.9482421875 381.370117188 41.927734375 c 0
 407.275390625 47.6083984375 440.056640625 58.0908203125 453.236328125 64.908203125 c 2
 477.470703125 77.443359375 l 1
 453.236328125 97.0810546875 l 2
 440.081054688 107.741210938 415.631835938 121.280273438 399.754882812 126.697265625 c 0
 368 137.53125 357.971679688 147.771484375 357.971679688 169.365234375 c 0
 357.971679688 198.947265625 388.055664062 202.556640625 437.359375 178.891601562 c 0
 462.428710938 166.858398438 485.409179688 153.6015625 487.916015625 149.7265625 c 0
 490.501953125 145.731445312 498.362304688 142.624023438 505.8828125 142.624023438 c 0
 517.1640625 142.624023438 518.556640625 150.98046875 514.796875 196.10546875 c 0
 509.783203125 256.2734375 474.887695312 343.180664062 455.744140625 343.180664062 c 0
 449.05859375 343.180664062 441.84375 347.081054688 440.284179688 351.538085938 c 0
 438.646484375 356.216796875 415.3984375 373.150390625 392 379 c 0
 356.067382812 387.983398438 354 388 353.793945312 401.258789062 c 0
 353.560546875 416.298828125 359.265625 420.624023438 374 424 c 0
 389.876953125 427.637695312 396.262695312 429.676757812 387 437 c 0
EndSplineSet
EndChar

StartChar: R
Encoding: 82 82 17
Width: 452
Flags: HW
LayerCount: 2
Fore
SplineSet
177.353515625 494.249023438 m 4
 242.53515625 517.646484375 292.043945312 502.037109375 316.668945312 450.323242188 c 4
 340.060546875 401.201171875 330.077148438 340.016601562 289.533203125 284.028320312 c 4
 266.538085938 252.2734375 266.329101562 250.901367188 281.392578125 230.545898438 c 4
 289.895507812 219.055664062 304.556640625 187.091796875 313.97265625 159.515625 c 4
 343.649414062 72.607421875 365.272460938 38.345703125 390.4453125 38.345703125 c 4
 397.966796875 38.345703125 410.943359375 31.8564453125 418.022460938 24.556640625 c 4
 429.3671875 12.8583984375 429.747070312 9.123046875 420.529296875 -0.0947265625 c 4
 406.452148438 -14.1708984375 385.431640625 -16.3642578125 341.977539062 -8.2880859375 c 4
 321.0859375 -4.40625 305.01953125 3.8154296875 302.284179688 12.0224609375 c 4
 299.77734375 19.54296875 293.889648438 31.5078125 289.331054688 38.345703125 c 4
 284.752929688 45.2138671875 270.614257812 78.45703125 258.056640625 111.8828125 c 4
 232.313476562 180.40625 207.85546875 204.342773438 156.461914062 211.311523438 c 6
 125.54296875 215.50390625 l 5
 128.36328125 132.774414062 l 6
 131.782226562 32.49609375 123.4921875 -6.455078125 97.966796875 -10.0439453125 c 4
 87.9384765625 -11.4541015625 79.2021484375 -9.5908203125 78.74609375 -5.9443359375 c 4
 78.2841796875 -2.248046875 76.70703125 32.49609375 75.21875 71.771484375 c 4
 71.7666015625 162.858398438 47.044921875 327.909179688 32.412109375 357.565429688 c 4
 18.392578125 385.977539062 32.3681640625 414.389648438 60.3623046875 414.389648438 c 4
 70.189453125 414.389648438 83.90625 423.58203125 91.5361328125 435.28125 c 4
 107.73828125 460.125 135.571289062 479.25 177.353515625 494.249023438 c 4
257.994140625 403.944335938 m 4
 249.336914062 421.493164062 237.01953125 435.930664062 230 436.755859375 c 4
 196.57421875 440.688476562 117.143554688 398.865234375 111.344726562 374.278320312 c 4
 109.526367188 366.56640625 110.095703125 346.702148438 112.590820312 330.82421875 c 4
 116.893554688 303.443359375 119.693359375 301.124023438 156.461914062 294.489257812 c 4
 206.6015625 285.44140625 237.33984375 299.7109375 258.13671875 341.688476562 c 4
 272.841796875 371.370117188 272.8359375 373.860351562 257.994140625 403.944335938 c 4
EndSplineSet
EndChar

StartChar: S
Encoding: 83 83 18
Width: 448
Flags: HW
LayerCount: 2
Fore
SplineSet
299.353515625 393.517578125 m 4
 371.219726562 401.544921875 414.266601562 367.840820312 387.002929688 324.891601562 c 4
 381.004882812 315.442382812 375.3984375 315.12109375 357.849609375 323.219726562 c 4
 346.150390625 328.620117188 329.565429688 333.248046875 321.916015625 333.248046875 c 4
 300.189453125 333.248046875 211.610351562 305.063476562 211.610351562 298.150390625 c 4
 211.610351562 294.947265625 227.487304688 288.254882812 246.708007812 283.357421875 c 4
 361.192382812 254.18359375 419.126953125 197.713867188 403.856445312 130.18359375 c 4
 394.030273438 86.7294921875 375.45703125 61.287109375 334.451171875 35.107421875 c 4
 242.529296875 -23.5791015625 89.107421875 -24.1337890625 51.2119140625 34.083984375 c 4
 31.62890625 64.1669921875 26.4736328125 96.9248046875 38.32421875 115.977539062 c 4
 52.3251953125 138.489257812 68.2724609375 136.869140625 79.4521484375 111.799804688 c 4
 84.5830078125 100.293945312 101.721679688 82.8359375 117.598632812 72.94140625 c 4
 143.014648438 57.1025390625 153.950195312 55.68359375 209.938476562 60.9599609375 c 4
 280.133789062 67.5751953125 313.397460938 81.2802734375 333.336914062 111.799804688 c 4
 344.904296875 129.50390625 345.456054688 136.451171875 336.958007812 157.342773438 c 4
 329.092773438 176.677734375 317.73828125 184.921875 284.311523438 195.568359375 c 4
 129.715820312 244.805664062 87.341796875 271.361328125 101.950195312 309.849609375 c 4
 112.686523438 338.13671875 223.309570312 385.022460938 299.353515625 393.517578125 c 4
EndSplineSet
EndChar

StartChar: T
Encoding: 84 84 19
Width: 562
Flags: HW
LayerCount: 2
Fore
SplineSet
324.796875 468.90234375 m 4
 375.771484375 477.70703125 435.331054688 484.221679688 458.500976562 483.526367188 c 4
 496.10546875 482.3984375 501.329101562 479.891601562 510.729492188 458.45703125 c 4
 516.59375 445.0859375 521.17578125 433.174804688 521.17578125 431.297851562 c 4
 521.17578125 429.434570312 498.61328125 427.955078125 470.200195312 427.955078125 c 4
 421.732421875 427.955078125 305.56640625 406.793945312 293.876953125 395.834960938 c 4
 290.686523438 392.84375 292.875 369.459960938 298.690429688 344.389648438 c 4
 309.845703125 296.306640625 310.083984375 257.481445312 300.02734375 126.284179688 c 4
 295.927734375 72.8017578125 296.94140625 40.3505859375 303.069335938 28.9306640625 c 4
 310.263671875 15.5234375 308.810546875 7.62109375 296.384765625 -7.4208984375 c 4
 282.271484375 -24.5048828125 278 -25.5263671875 257.944335938 -16.61328125 c 4
 238.202148438 -7.8388671875 236.131835938 -3.2421875 241.38671875 20.15625 c 4
 252.083984375 67.7880859375 247.616210938 295.40625 235.186523438 336.033203125 c 6
 223.682617188 373.637695312 l 5
 152.651367188 377.986328125 l 6
 75.771484375 382.693359375 25.162109375 402.154296875 33.5712890625 423.77734375 c 4
 40.2333984375 440.908203125 64.072265625 445.36328125 132.595703125 442.283203125 c 4
 165.186523438 440.819335938 200.34375 442.615234375 211.983398438 446.33984375 c 4
 223.568359375 450.046875 273.821289062 460.09765625 324.796875 468.90234375 c 4
EndSplineSet
EndChar

StartChar: U
Encoding: 85 85 20
Width: 408
Flags: HW
LayerCount: 2
Fore
SplineSet
208.081054688 359.715820312 m 4
 210.66796875 366.465820312 222.9140625 372.250976562 234.61328125 372.250976562 c 4
 300.670898438 372.250976562 364.139648438 290.356445312 364.139648438 205.120117188 c 4
 364.139648438 159.994140625 331.877929688 81.5654296875 300.204101562 49.6884765625 c 4
 249.673828125 -1.1650390625 210.37890625 4.0859375 136.005859375 71.6328125 c 4
 84.1533203125 118.725585938 55.7890625 181.721679688 44.671875 274.479492188 c 4
 35.2578125 353.030273438 38.5966796875 363.118164062 74.1669921875 363.5859375 c 4
 92.5654296875 363.828125 100.75390625 343.002929688 112.48828125 266.123046875 c 4
 117.97265625 230.189453125 129.8203125 192.413085938 141.315429688 174.200195312 c 4
 165.051757812 136.595703125 219.875976562 87.8779296875 237.955078125 88.32421875 c 4
 281.631835938 89.40234375 310.986328125 170.858398438 292.994140625 241.052734375 c 4
 282.712890625 281.1640625 252.798828125 322.111328125 233.77734375 322.111328125 c 4
 218.735351562 322.111328125 202.674804688 345.614257812 208.081054688 359.715820312 c 4
EndSplineSet
EndChar

StartChar: V
Encoding: 86 86 21
Width: 458
Flags: HW
LayerCount: 2
Fore
SplineSet
352.831054688 396.250976562 m 4
 359.458007812 412.66015625 381.693359375 414.163085938 401.749023438 399.556640625 c 4
 428.108398438 380.360351562 428.471679688 320.206054688 402.810546875 224.10546875 c 4
 371.79296875 107.950195312 344.049804688 52.8544921875 302.306640625 24.5146484375 c 4
 283.921875 12.033203125 260.983398438 1.708984375 251.331054688 1.5712890625 c 4
 229.653320312 1.26171875 197.849609375 34.412109375 183.748046875 72.0166015625 c 4
 177.793945312 87.89453125 167.94140625 113.87109375 162.1953125 128.840820312 c 4
 136.534179688 195.693359375 83.4404296875 267.392578125 59.130859375 268.020507812 c 4
 39.818359375 268.520507812 19.9775390625 300.150390625 25.34765625 321.876953125 c 4
 29.57421875 338.973632812 36.150390625 343.604492188 56.2060546875 343.604492188 c 4
 70.412109375 343.604492188 92.419921875 338.08203125 105.927734375 331.127929688 c 4
 139.353515625 313.91796875 189.412109375 243.326171875 218.559570312 172.294921875 c 4
 257.994140625 76.1953125 271.260742188 70.4248046875 301.178710938 136.362304688 c 4
 352.366210938 249.17578125 376.384765625 353.926757812 355.788085938 374.5234375 c 4
 351.087890625 379.224609375 349.793945312 388.729492188 352.831054688 396.250976562 c 4
EndSplineSet
EndChar

StartChar: W
Encoding: 87 87 22
Width: 622
Flags: HW
LayerCount: 2
Fore
SplineSet
362.428710938 367.799804688 m 4
 362.428710938 380.751953125 368.278320312 383.676757812 394.18359375 383.676757812 c 4
 430.055664062 383.676757812 463.482421875 354.428710938 511.655273438 280.891601562 c 4
 595.409179688 153.036132812 599.15625 65.42578125 523.709960938 -0.984375 c 4
 496.760742188 -24.70703125 489.448242188 -27.0615234375 453.515625 -23.5927734375 c 4
 406.71875 -19.07421875 361.698242188 8.2529296875 347.00390625 41.05859375 c 4
 341.389648438 53.59375 327.018554688 70.6640625 316.049804688 77.8271484375 c 4
 295.978515625 90.935546875 294.741210938 90.3701171875 252.958007812 48.9970703125 c 4
 229.559570312 25.828125 197.526367188 1.5966796875 181.927734375 -4.7333984375 c 4
 157.869140625 -14.49609375 143.487304688 -15.4365234375 100.869140625 -10.0341796875 c 4
 96.6904296875 -9.5048828125 95.0625 -2.3955078125 97.205078125 5.9609375 c 4
 102.999023438 28.55859375 88.2236328125 121.28125 70.306640625 174.763671875 c 4
 61.9072265625 199.833007812 52.2490234375 234.018554688 49.05859375 249.971679688 c 4
 45.8828125 265.849609375 40.8212890625 283.040039062 37.986328125 287.576171875 c 4
 26.724609375 305.595703125 29.8388671875 317.6015625 49.05859375 330.263671875 c 4
 83.69140625 353.080078125 99.03125 335.208984375 119.412109375 248.30078125 c 4
 129.407226562 205.682617188 141.22265625 159.07421875 145.576171875 145.09765625 c 4
 150.000976562 130.891601562 153.515625 109.623046875 153.515625 97.046875 c 4
 153.515625 61.9501953125 174.40625 61.4619140625 216.189453125 95.5849609375 c 4
 247.108398438 120.8359375 253.793945312 131.198242188 253.793945312 153.872070312 c 4
 253.793945312 193.983398438 272.395507812 205.9453125 308.111328125 188.801757812 c 4
 323.989257812 181.180664062 337.359375 171.70703125 337.359375 168.078125 c 4
 337.359375 164.3515625 347.53125 150.111328125 360.33984375 135.905273438 c 4
 372.76171875 122.127929688 395.963867188 96.2119140625 410.838867188 79.4990234375 c 4
 443.5625 42.7294921875 470.798828125 39.9580078125 501.147460938 70.306640625 c 4
 516.99609375 86.1552734375 521.109375 97.046875 518.186523438 115.431640625 c 4
 512.473632812 151.365234375 431.73828125 296.41015625 409.225585938 311.18359375 c 4
 377.470703125 332.0234375 362.428710938 350.220703125 362.428710938 367.799804688 c 4
EndSplineSet
EndChar

StartChar: X
Encoding: 88 88 23
Width: 464
Flags: HW
LayerCount: 2
Fore
SplineSet
297.454101562 350.852539062 m 6
 362.193359375 423.5546875 379.598632812 438.595703125 398.986328125 438.595703125 c 4
 441.174804688 438.595703125 427.412109375 409.348632812 343.1484375 319.93359375 c 4
 299.047851562 273.13671875 263.610351562 231.25 263.610351562 225.921875 c 4
 263.610351562 220.52734375 274.055664062 206.232421875 287.42578125 193.331054688 c 4
 300.6015625 180.619140625 320.06640625 152.801757812 330.991210938 131.075195312 c 4
 352.420898438 88.45703125 363.271484375 0.095703125 348.846679688 -14.3291015625 c 4
 336.805664062 -26.3701171875 305.392578125 -7.6435546875 305.392578125 11.576171875 c 4
 305.392578125 53.359375 231.233398438 165.840820312 209.291992188 157.336914062 c 4
 202.866210938 154.845703125 176.059570312 126.061523438 149.815429688 93.470703125 c 4
 81.177734375 8.234375 68.259765625 -1.197265625 59.3916015625 27.4541015625 c 4
 52.1298828125 50.916015625 74.41015625 95.9775390625 120.955078125 151.966796875 c 4
 144.57421875 180.37890625 163.331054688 204.420898438 163.331054688 206.284179688 c 4
 163.331054688 216.662109375 113.192382812 261.55859375 85.615234375 275.873046875 c 4
 68.06640625 284.982421875 48.06640625 301.141601562 40.908203125 311.994140625 c 4
 29.3330078125 329.54296875 29.5107421875 333.321289062 42.5791015625 347.509765625 c 4
 50.2763671875 355.866210938 63.537109375 363.38671875 70.57421875 363.38671875 c 4
 83.97265625 363.38671875 143.275390625 325.185546875 193.415039062 284.255859375 c 6
 219.3203125 263.108398438 l 5
 297.454101562 350.852539062 l 6
EndSplineSet
EndChar

StartChar: Y
Encoding: 89 89 24
Width: 430
Flags: HW
LayerCount: 2
Fore
SplineSet
277.078125 503.309570312 m 0
 300.672851562 509.5078125 307.161132812 508.352539062 332.231445312 493.4921875 c 0
 401.366210938 452.509765625 404.846221588 331.505686659 339.44140625 242.924804688 c 0
 328.334960938 227.8828125 316 221 310 217 c 0
 306.670730044 214.780486696 305 208.95703125 305 204 c 3
 305 199.516601562 306.139511678 192.813984429 312 185 c 0
 318 177 319 173 320.532226562 163.538085938 c 0
 324.776158401 137.33065727 338.649414062 89.1640625 359.787109375 59.916015625 c 0
 381.52734375 29.8330078125 377.634765625 11.1005859375 348.108398438 3.71875 c 0
 301.830078125 -7.8505859375 281.821289062 16.4619140625 257.158203125 114.234375 c 2
 241.98046875 174.401367188 l 1
 201.869140625 174.401367188 l 2
 123.234375 174.401367188 87.44140625 202.813476562 53.43359375 292.228515625 c 0
 30.548828125 352.395507812 31.4228515625 373.30859375 57.30078125 384.844726562 c 0
 84.8056640625 397.106445312 98.5517578125 384.986328125 115.90625 333.17578125 c 0
 139.698242188 262.14453125 175.49609375 235.30859375 227.774414062 249.311523438 c 0
 297.608398438 268.017578125 331.737304688 321.4765625 320.791992188 395.013671875 c 0
 314.822265625 435.125 297.177734375 458.5234375 272.899414062 458.5234375 c 0
 255.78125 458.5234375 259.529296875 498.69921875 277.078125 503.309570312 c 0
EndSplineSet
EndChar

StartChar: Z
Encoding: 90 90 25
Width: 540
Flags: HW
LayerCount: 2
Fore
SplineSet
134.551757812 358.23828125 m 4
 175.936523438 360.404296875 248.200195312 360.05859375 324.245117188 357.328125 c 4
 361.849609375 355.978515625 364.356445312 354.478515625 364.356445312 333.326171875 c 4
 364.356445312 301.791992188 343.294921875 269.81640625 278.489257812 202.963867188 c 4
 217.733398438 140.290039062 208.379882812 122.6015625 222.3671875 96.8359375 c 4
 234.233398438 74.9765625 265.749023438 75.15625 374.384765625 97.703125 c 4
 438.729492188 111.057617188 463.352539062 113.130859375 478.005859375 106.4296875 c 4
 514.16015625 89.8935546875 493.8828125 53.18359375 443.744140625 44.40234375 c 4
 430.069335938 42.0068359375 397.783203125 33.6162109375 372.712890625 25.94140625 c 4
 310.0390625 6.755859375 229.4609375 -3.63671875 200.568359375 3.740234375 c 4
 183.334960938 8.1396484375 170.9375 20.791015625 157.651367188 47.5322265625 c 4
 124.0234375 115.219726562 135.439453125 162.265625 198.896484375 217.502929688 c 4
 264.9140625 274.96875 272.434570312 282.455078125 272.434570312 290.708007812 c 4
 272.434570312 299.916992188 117.838867188 298.3984375 75.2197265625 288.770507812 c 4
 51.8212890625 283.483398438 45.259765625 285.2265625 38.033203125 298.646484375 c 4
 33.083984375 307.838867188 31.515625 321.862304688 34.4365234375 330.819335938 c 4
 40.0703125 348.096679688 63.5205078125 354.51953125 134.551757812 358.23828125 c 4
EndSplineSet
EndChar

StartChar: a
Encoding: 97 97 26
Width: 445
Flags: HW
LayerCount: 2
Fore
SplineSet
74.666015625 200.12890625 m 0
 98.990234375 223.083007812 120.791992188 224.892578125 185.657226562 209.33984375 c 0
 216.6484375 201.909179688 232.186523438 193.76953125 242.955078125 179.325195312 c 0
 251.056640625 168.456054688 288 130.052734375 324.756835938 94.2890625 c 0
 398.990234375 22.0615234375 405.381835938 3.8291015625 356.467773438 3.8291015625 c 0
 335.134765625 3.8291015625 321.15234375 10.96484375 286.55859375 39.5048828125 c 0
 262.774414062 59.126953125 240.8828125 75.3427734375 237.909179688 75.541015625 c 0
 234.930664062 75.7392578125 216.971679688 60.0458984375 197.909179688 40.5859375 c 0
 168.962890625 11.0361328125 157.548828125 4.41015625 128 0 c 0
 79.96484375 -7.169921875 61.9169921875 4.5498046875 44.40625 54.279296875 c 0
 31.4951171875 90.947265625 31.369140625 95.7216796875 42.234375 136.802734375 c 0
 49.8583984375 165.630859375 60.84765625 187.088867188 74.666015625 200.12890625 c 0
163.315429688 159.745117188 m 0
 127.919921875 174.493164062 124.887695312 173.198242188 108.734375 136.442382812 c 0
 80.546875 72.2978515625 112.217773438 32.9091796875 159.7109375 73.0419921875 c 0
 204.396484375 110.801757812 205.696289062 142.0859375 163.315429688 159.745117188 c 0
EndSplineSet
EndChar

StartChar: b
Encoding: 98 98 27
Width: 369
Flags: HW
LayerCount: 2
Fore
SplineSet
35.603515625 518.631835938 m 0
 72.634765625 545.84765625 84.4814453125 521.349609375 92.146484375 401.709960938 c 0
 98.9345703125 295.764648438 99.1005859375 294.20703125 104.530273438 285.673828125 c 0
 107.047851562 281.717773438 111.303710938 261.890625 113.966796875 241.709960938 c 0
 120.623046875 191.259765625 128.13671875 181.278320312 144.348632812 201.349609375 c 0
 180.440429688 246.034179688 240.66015625 264.708007812 272 243 c 0
 305.819335938 219.575195312 325.819335938 195.575195312 337.819335938 163.575195312 c 0
 352.22265625 125.166015625 331.038085938 75.232421875 326.819335938 62.5751953125 c 0
 323.819335938 53.5751953125 310.5703125 31.98046875 299.747070312 19.728515625 c 0
 281.653320312 -0.7548828125 277.765625 -1.8740234375 225.873046875 -1.533203125 c 0
 185.512695312 -1.267578125 164.459960938 2.4306640625 145.873046875 12.521484375 c 0
 132.1796875 19.955078125 117.353515625 26.3798828125 113.44140625 26.5751953125 c 0
 109.509765625 26.771484375 95.4228515625 33.4873046875 82.4501953125 41.349609375 c 0
 62.990234375 53.1435546875 59.0595703125 59.6953125 60.828125 77.3857421875 c 0
 62.341796875 92.521484375 68.828125 101.818359375 82.4501953125 108.376953125 c 0
 101.909179688 117.74609375 101.909179688 117.74609375 90.4541015625 144.413085938 c 0
 70.7978515625 190.170898438 52.720703125 269.09765625 44.728515625 344.052734375 c 0
 40.501953125 383.692382812 33.8017578125 437.043945312 29.8369140625 462.611328125 c 0
 23.4677734375 503.692382812 24.138671875 510.206054688 35.603515625 518.631835938 c 0
279.927734375 171.2578125 m 0
 270.26171875 177.602539062 251.819335938 184.344726562 238.125976562 186.541015625 c 0
 198.02734375 192.971679688 181.161132812 169.638671875 163.915039062 83.8720703125 c 0
 160.021484375 64.509765625 162.08984375 61.34765625 183.7109375 53.6025390625 c 0
 196.684570312 48.955078125 216.859375 44.953125 227.314453125 44.953125 c 0
 282.08984375 44.953125 322.94140625 143.025390625 279.927734375 171.2578125 c 0
EndSplineSet
EndChar

StartChar: c
Encoding: 99 99 28
Width: 397
Flags: HW
LayerCount: 2
Fore
SplineSet
123.387695312 192.677734375 m 4
 168.072265625 205.594726562 179.274414062 204.498046875 221.405273438 183.081054688 c 4
 249.513671875 168.79296875 261.029296875 158.4921875 262.861328125 146 c 4
 266.904296875 118.432617188 255.279296875 115.676757812 216.360351562 134.978515625 c 4
 184.6484375 150.705078125 175.44921875 152.270507812 149.333007812 146.37890625 c 4
 110.4140625 137.600585938 83.748046875 119.864257812 83.748046875 102.756835938 c 4
 83.748046875 95.0751953125 96.720703125 77.8798828125 113.296875 63.5888671875 c 4
 159.946289062 23.3740234375 188.97265625 22.0283203125 325.189453125 53.763671875 c 4
 348.97265625 59.3046875 371.02734375 62.38671875 374.198242188 60.61328125 c 4
 381.266601562 56.6591796875 350.4140625 18.177734375 336 12.9697265625 c 4
 330.053710938 10.8212890625 305.729492188 2.1552734375 281.946289062 -6.2880859375 c 4
 218.522460938 -28.8037109375 154.54296875 -28.677734375 109.693359375 -5.9501953125 c 4
 90.234375 3.9111328125 70.8193359375 17.6083984375 66.4501953125 24.55859375 c 4
 61.919921875 31.765625 55.43359375 37.1708984375 51.3154296875 37.1708984375 c 4
 41.28515625 37.1708984375 24.3056640625 86.1806640625 24.099609375 115.729492188 c 4
 23.998046875 130.14453125 28.67578125 143.557617188 35.458984375 148.306640625 c 4
 64.2880859375 168.486328125 97.26171875 185.125976562 123.387695312 192.677734375 c 4
EndSplineSet
EndChar

StartChar: v
Encoding: 118 118 29
Width: 330
Flags: HW
LayerCount: 2
Fore
SplineSet
231.540039062 216.567382812 m 0
 242.860351562 238.91015625 248.981445312 243.594726562 266.85546875 243.594726562 c 0
 294.243164062 243.594726562 301.779296875 227.134765625 286.323242188 201.072265625 c 0
 280.014648438 190.434570312 269.413085938 157.108398438 262.936523438 127.55859375 c 0
 238.924804688 18.009765625 211.38671875 -17.50390625 171 9 c 0
 145.053710938 26.02734375 21.978515625 161.61328125 22.1650390625 172.963867188 c 0
 22.412109375 188.060546875 31.1796875 197.9453125 49.1982421875 203.442382812 c 0
 62.2412109375 207.420898438 72.853515625 200.3515625 109.017578125 163.594726562 c 0
 133.126953125 139.090820312 157.864257812 111.26171875 163.79296875 101.973632812 c 0
 169.7734375 92.603515625 177.340820312 85.0361328125 180.729492188 85.0361328125 c 0
 184.109375 85.0361328125 193.801757812 108.459960938 202.3515625 137.288085938 c 0
 210.900390625 166.1171875 223.985351562 201.65625 231.540039062 216.567382812 c 0
EndSplineSet
EndChar

StartChar: s
Encoding: 115 115 30
Width: 368
Flags: HW
LayerCount: 2
Fore
SplineSet
102.649414062 306.772460938 m 0
 131.306640625 314.607421875 158.14453125 315.379882812 224.451171875 310.279296875 c 0
 229.392578125 309.899414062 235.125976562 303.127929688 237.829101562 294.478515625 c 0
 244.360351562 273.578125 222.452148438 251.326171875 202.108398438 258.19921875 c 0
 185.532226562 263.799804688 133.563476562 261.969726562 127.153320312 255.560546875 c 0
 119.891601562 248.298828125 130.756835938 245.4296875 194.901367188 237.669921875 c 0
 269.135742188 228.690429688 304.331054688 213.21484375 323.048828125 181.326171875 c 0
 335.947265625 159.349609375 333.509765625 159.051757812 320.306640625 115.01953125 c 0
 313.205078125 91.3359375 302.567382812 76.587890625 294.306640625 65.6591796875 c 0
 283.955078125 51.96484375 275.319335938 44.2666015625 259.044921875 32.4970703125 c 0
 237.821289062 17.1474609375 216.890625 6.9111328125 203.549804688 6.9111328125 c 0
 179.201171875 6.9111328125 148.841796875 29.9814453125 115.306640625 54.6591796875 c 0
 78.333984375 81.8662109375 39.2255859375 111.91015625 39.2255859375 135.200195312 c 0
 39.2255859375 143.848632812 42.501953125 151.055664062 46.4326171875 151.055664062 c 0
 61.423828125 151.055664062 109.856445312 124.33203125 147.333984375 95.380859375 c 0
 173.471679688 75.189453125 189.305664062 61.6591796875 204.306640625 61.6591796875 c 3
 219.087890625 61.6591796875 233.119140625 75.1630859375 247.63671875 94.83984375 c 0
 290.127929688 152.430664062 277.784179688 166.873046875 174 181 c 0
 83.91015625 193.26171875 39.2255859375 220.1328125 39.2255859375 262.046875 c 0
 39.2255859375 277.607421875 66.61328125 296.920898438 102.649414062 306.772460938 c 0
EndSplineSet
EndChar

StartChar: i
Encoding: 105 105 31
Width: 169
Flags: HW
LayerCount: 2
Fore
SplineSet
21.7919921875 181.032226562 m 0
 24.2138671875 184.866210938 34.044921875 187.87890625 44.134765625 187.87890625 c 0
 65.32421875 187.87890625 76.85546875 164.815429688 90.9814453125 94.185546875 c 0
 96.1708984375 68.2392578125 104.209960938 44.064453125 109 40 c 0
 120.446289062 30.2880859375 113.32421875 -6.365234375 98.9091796875 -11.92578125 c 0
 84.4951171875 -17.4853515625 47.017578125 24.275390625 47.017578125 45.8974609375 c 0
 47.017578125 55.0947265625 40.4404296875 87.3388671875 32.2431640625 118.329101562 c 0
 24.044921875 149.3203125 19.392578125 177.233398438 21.7919921875 181.032226562 c 0
59.990234375 356.586914062 m 0
 74.4052734375 360.657226562 131.53515625 355.685546875 141.431640625 349.500976562 c 0
 149.360351562 344.545898438 149.944335938 317.73828125 142.15234375 316.418945312 c 0
 86.6572265625 307.022460938 47.017578125 318.329101562 47.017578125 343.5546875 c 0
 47.017578125 348.759765625 52.783203125 354.551757812 59.990234375 356.586914062 c 0
EndSplineSet
EndChar

StartChar: d
Encoding: 100 100 32
Width: 370
Flags: HW
LayerCount: 2
Fore
SplineSet
184.758789062 562.666992188 m 4
 194.186523438 578.029296875 205.955078125 580.041015625 225.4140625 569.616210938 c 4
 236.004882812 563.943359375 239.298828125 549.693359375 243.3515625 492.036132812 c 4
 252.950195312 355.482421875 261.28125 309.693359375 313.51171875 106.450195312 c 4
 317.5859375 90.5947265625 325.1015625 79.0634765625 331.360351562 79.0634765625 c 4
 342.891601562 79.0634765625 345.17578125 53.4521484375 334.243164062 46.734375 c 4
 330.169921875 44.2314453125 327.036132812 35.0986328125 327.036132812 25.7294921875 c 4
 327.036132812 11.6884765625 322.3515625 8.4921875 296.405273438 4.8291015625 c 4
 279.388671875 2.4267578125 251.360351562 -2.8525390625 233.342773438 -7.0478515625 c 4
 168.477539062 -22.1533203125 156.782226562 -22.990234375 125.955078125 -14.7294921875 c 4
 47.396484375 6.322265625 -0.859375 125.420898438 42.3984375 191.495117188 c 4
 58.9609375 216.795898438 103.612304688 244.026367188 147.576171875 255.639648438 c 4
 180.008789062 264.20703125 188.821289062 264.260742188 205.955078125 256 c 4
 216.765625 250.788085938 226.134765625 247.274414062 226.134765625 248.432617188 c 4
 226.134765625 249.625 221.48828125 269.333007812 215.768554688 292.396484375 c 4
 190.387695312 394.73828125 173.268554688 543.94140625 184.758789062 562.666992188 c 4
208.1171875 198.529296875 m 4
 176.290039062 211.950195312 170.639648438 211.583007812 137.486328125 193.936523438 c 4
 81.2705078125 164.014648438 68.8623046875 108.877929688 108.391601562 64.6484375 c 4
 131.151367188 39.18359375 168.477539062 31.85546875 220.369140625 42.6669921875 c 4
 277.306640625 54.5283203125 280.216796875 57.3818359375 269.271484375 90.5947265625 c 4
 264.284179688 105.729492188 253.85546875 126.686523438 246.67578125 136 c 4
 239.453125 145.369140625 233.342773438 161.225585938 233.342773438 170.594726562 c 4
 233.342773438 183.444335938 226.85546875 190.626953125 208.1171875 198.529296875 c 4
EndSplineSet
EndChar

StartChar: o
Encoding: 111 111 33
Width: 322
Flags: HW
LayerCount: 2
Fore
SplineSet
86.865234375 206.938476562 m 0
 111.047851562 218.626953125 122.180664062 217.112304688 182 194 c 0
 266.32421875 161.420898438 299.157226562 121.046875 287.313476562 64.5 c 0
 283.130859375 44.533203125 274.973632812 36.19140625 243.26171875 19.455078125 c 0
 211.313476562 2.59375 195.694335938 -1.0859375 156.0546875 -1.0859375 c 0
 103.44140625 -1.0859375 55.1533203125 14.435546875 55.1533203125 31.3466796875 c 0
 55.1533203125 37.1123046875 51.9580078125 42.1572265625 48.306640625 42.1572265625 c 0
 44.5869140625 42.1572265625 37.837890625 55.4912109375 33.5322265625 71.3466796875 c 0
 26.3564453125 97.7666015625 27.7578125 105.220703125 48.306640625 149.905273438 c 0
 61.232421875 178.013671875 77.837890625 202.575195312 86.865234375 206.938476562 c 0
163.982421875 149.387695312 m 0
 126.504882812 160.708984375 121.797851562 160.02734375 110.323242188 141.6171875 c 0
 77.97265625 89.71484375 95.513671875 56.572265625 155.333984375 56.572265625 c 0
 200.739257812 56.572265625 225.336914062 65.8720703125 231.5859375 85.4013671875 c 0
 237.030273438 102.415039062 218.756835938 128.64453125 201.459960938 128.64453125 c 0
 196.415039062 128.64453125 192.08984375 131.471679688 192.08984375 134.770507812 c 0
 192.08984375 138.069335938 179.1171875 144.815429688 163.982421875 149.387695312 c 0
EndSplineSet
EndChar

StartChar: g
Encoding: 103 103 34
Width: 356
Flags: HW
LayerCount: 2
Fore
SplineSet
88.134765625 203.586914062 m 0
 121.907226562 216.251953125 179.594726562 209.682617188 225 188 c 0
 258.081054688 172.202148438 262.552734375 167.612304688 267.486328125 144.3984375 c 0
 270.51953125 130.127929688 275.557617188 113.490234375 278.684570312 107.424804688 c 0
 284.9609375 95.24609375 316.625976562 6.884765625 320.05859375 -8.0341796875 c 0
 321.296875 -13.416015625 329.631835938 -31.3857421875 338.712890625 -48.25 c 0
 369.797851562 -105.98046875 400.7734375 -208.329101562 402.122070312 -257.763671875 c 0
 402.8125 -283.061523438 400.043945312 -309.958007812 395.978515625 -317.439453125 c 0
 383.206054688 -340.953125 350.189453125 -363.560546875 312.567382812 -374.551757812 c 0
 228.243164062 -399.188476562 102.965820312 -367.610351562 33.6484375 -304.24609375 c 0
 -24.0810546875 -251.473632812 -48.923828125 -179.471679688 -19.541015625 -150.087890625 c 0
 1.955078125 -128.591796875 14.9287109375 -136.466796875 18.9326171875 -173.439453125 c 0
 23.076171875 -211.709960938 30.458984375 -226.729492188 62.6171875 -262.3046875 c 0
 135.323242188 -342.736328125 318.405273438 -366.637695312 350.802734375 -299.92578125 c 0
 359.2109375 -282.610351562 359.421875 -273.331054688 352.326171875 -233.115234375 c 0
 341.680664062 -172.791015625 317.416992188 -99.1005859375 302.990234375 -83.27734375 c 0
 296.484375 -76.142578125 291.162109375 -68.115234375 291.162109375 -65.439453125 c 0
 291.162109375 -62.7294921875 280.24609375 -40.466796875 266.512695312 -15.1689453125 c 2
 241.865234375 30.236328125 l 1
 203.594726562 7.1240234375 l 2
 162.080078125 -17.9443359375 128.637695312 -22.5478515625 101.108398438 -6.978515625 c 0
 52.458984375 20.533203125 47.197265625 26.2021484375 39.4658203125 59.42578125 c 0
 26.0322265625 117.154296875 29.1435546875 135.229492188 62.35546875 192.397460938 c 0
 62.98046875 193.473632812 74.513671875 198.478515625 88.134765625 203.586914062 c 0
196.458984375 148.290039062 m 0
 191.806640625 152.2265625 171.162109375 156.876953125 150.405273438 158.6640625 c 0
 102.405273438 162.795898438 90.080078125 151.666015625 90.080078125 104.181640625 c 0
 90.080078125 74.9921875 92.4462890625 69.1103515625 110.189453125 54.1806640625 c 0
 134.592773438 33.6455078125 153.6484375 33.0400390625 182.837890625 51.87109375 c 0
 216.567382812 73.6328125 221.772460938 84.69140625 212.6484375 115.208984375 c 0
 208.381835938 129.479492188 201.096679688 144.365234375 196.458984375 148.290039062 c 0
EndSplineSet
EndChar

StartChar: e
Encoding: 101 101 35
Width: 376
Flags: HW
LayerCount: 2
Fore
SplineSet
67.9365234375 212.909179688 m 0
 109.73828125 230.874023438 166.229492188 212.536132812 165.90234375 181.108398438 c 0
 165.684570312 160.20703125 138.024414062 108.209960938 124.873046875 103.978515625 c 0
 82.3505859375 90.2978515625 82.3505859375 90.2978515625 106.85546875 72.9921875 c 0
 159.584960938 35.75390625 249.166992188 60.748046875 290.28515625 124.171875 c 0
 313.647460938 160.20703125 324.250976562 165.41015625 338.758789062 147.955078125 c 0
 351.84765625 132.20703125 336.044921875 86.3818359375 308.657226562 60.66796875 c 0
 278.38671875 32.2470703125 198.545898438 -7 171 -7 c 0
 27.576171875 -7 -51.443359375 161.60546875 67.9365234375 212.909179688 c 0
101.08984375 159.486328125 m 0
 101.08984375 171.435546875 87.119140625 165.973632812 78.96875 150.837890625 c 0
 71.595703125 137.14453125 72.2607421875 136.4921875 85.9541015625 143.991210938 c 0
 94.603515625 148.727539062 101.08984375 155.368164062 101.08984375 159.486328125 c 0
EndSplineSet
EndChar

StartChar: f
Encoding: 102 102 36
Width: 380
Flags: HW
LayerCount: 2
Fore
SplineSet
180.071289062 576.80078125 m 0
 203.3515625 583.923828125 243.590820312 583.540039062 264 576 c 0
 290.216796875 566.314453125 326.676757812 517.583007812 331.538085938 485.727539062 c 0
 336.026367188 456.322265625 332.555664062 423.098632812 322.3203125 397.510742188 c 0
 316.634765625 383.298828125 311.783203125 380.358398438 294.017578125 380.358398438 c 0
 269.825195312 380.358398438 268.87109375 382.80859375 282.318359375 410.375976562 c 0
 289.131835938 424.34375 291.328125 441.006835938 289.423828125 464.286132812 c 0
 287.067382812 493.079101562 283.458984375 500.998046875 264.612304688 518.736328125 c 0
 240.404296875 541.520507812 227.243164062 543.92578125 196.612304688 531.163085938 c 0
 166.165039062 518.4765625 151.754882812 495.529296875 146.922851562 452.034179688 c 0
 144.608398438 431.205078125 141.713867188 408.794921875 140.513671875 402.412109375 c 0
 134.751953125 371.782226562 188.138671875 192.624023438 204.576171875 187.422851562 c 0
 209.9375 185.7265625 271.783203125 181.09375 311 181 c 0
 343.235351562 180.922851562 366 169 332 160 c 0
 317.439453125 156.145507812 292.7890625 149.565429688 262.162109375 147.565429688 c 0
 237.709960938 145.96875 217.440429688 145.48828125 217.440429688 142.970703125 c 0
 217.440429688 140.442382812 222.951171875 117.853515625 229.693359375 92.736328125 c 0
 236.436523438 67.6201171875 241.9453125 41.0361328125 241.9453125 33.6201171875 c 0
 241.9453125 16.537109375 227.85546875 5.0546875 210.08984375 7.6611328125 c 0
 197.565429688 9.498046875 195.515625 14.015625 191.638671875 48.322265625 c 0
 187.139648438 88.1416015625 177.032226562 126.848632812 168.125976562 138.375976562 c 0
 164.654296875 142.869140625 146.990234375 143.46484375 115.134765625 140.1640625 c 0
 31.20703125 131.469726562 26.556640625 131.590820312 19.4775390625 142.665039062 c 0
 7.5771484375 161.27734375 26.9189453125 171.612304688 89.4052734375 180.029296875 c 0
 157.126953125 189.150390625 155.079101562 183.096679688 121.939453125 276.213867188 c 0
 85.748046875 377.908203125 86.31640625 467.93359375 123.55859375 532.286132812 c 0
 138.30859375 557.775390625 151.278320312 567.991210938 180.071289062 576.80078125 c 0
EndSplineSet
EndChar

StartChar: h
Encoding: 104 104 37
Width: 322
Flags: HW
LayerCount: 2
Fore
SplineSet
40.1357421875 226.864257812 m 0
 29.6806640625 359.4765625 32.9521484375 385.327148438 9.0498046875 502.50390625 c 0
 2.287109375 535.657226562 -1.3349609375 566.822265625 0.92578125 572.4140625 c 0
 5.36328125 583.391601562 25.67578125 586.036132812 38.6484375 577.325195312 c 0
 47.16796875 571.60546875 73.6435546875 447.729492188 81.44140625 377.098632812 c 0
 84.060546875 353.376953125 87.3544921875 276.918945312 88.73828125 207.729492188 c 0
 90.32421875 128.450195312 94.072265625 80.666015625 98.8291015625 79.0810546875 c 0
 102.811523438 77.7529296875 106.396484375 83.044921875 106.396484375 90.251953125 c 0
 106.396484375 109.711914062 147.959960938 184.774414062 163.333007812 193.078125 c 0
 184.854492188 204.703125 222.600585938 180.341796875 241.135742188 142.864257812 c 0
 257.37890625 110.022460938 272.981445312 49.8916015625 275.732421875 9.53125 c 0
 276.568359375 -2.720703125 280.486328125 -19.8984375 284.774414062 -30.1083984375 c 0
 290.526367188 -43.8017578125 289.836914062 -50.720703125 281.904296875 -58.9375 c 0
 259.532226562 -82.1083984375 241.458984375 -51.0087890625 210.28125 64.3056640625 c 0
 204.241210938 86.6484375 195.186523438 110.619140625 190 118 c 0
 181.440429688 130.180664062 177.736328125 126.288085938 147.139648438 72.955078125 c 0
 107.860351562 4.486328125 98.5546875 -4.703125 74.6845703125 1.41015625 c 0
 53.81640625 6.75390625 42.97265625 47.7294921875 42.97265625 121.243164062 c 0
 42.97265625 163.044921875 42.521484375 196.59375 40.1357421875 226.864257812 c 0
EndSplineSet
EndChar

StartChar: j
Encoding: 106 106 38
Width: 288
Flags: HW
LayerCount: 2
Fore
SplineSet
115.291992188 207.594726562 m 0
 140.72265625 233.025390625 169.6796875 214.081054688 173.681640625 169.396484375 c 0
 176.904296875 133.40234375 190.688476562 77.14453125 212 13 c 0
 242.411132812 -78.53125 250.290039062 -135.87109375 244.284179688 -221.955078125 c 0
 239.809570312 -286.098632812 237.202148438 -296.326171875 220.586914062 -314.927734375 c 0
 186.1953125 -353.431640625 131.869140625 -343.950195312 25.2021484375 -280.826171875 c 0
 -69.93359375 -224.52734375 -90.11328125 -204.008789062 -90.11328125 -163.576171875 c 0
 -90.11328125 -130.422851562 -70.767578125 -88.0966796875 -57.6806640625 -92.6181640625 c 0
 -53.5830078125 -94.0341796875 -51.5224609375 -110.963867188 -52.904296875 -131.864257812 c 0
 -55.88671875 -176.982421875 -46.8701171875 -187.844726562 32.4091796875 -234.637695312 c 0
 93.6708984375 -270.795898438 149.50390625 -291.833007812 170.06640625 -286.504882812 c 0
 212.012695312 -275.637695312 205.9453125 -96.548828125 160.897460938 -15.828125 c 0
 155.967773438 -6.994140625 146.14453125 22.3701171875 138.715820312 50.4775390625 c 0
 131.287109375 78.5859375 122.075195312 112.099609375 117.915039062 126.153320312 c 0
 103.622070312 174.44140625 102.952148438 195.254882812 115.291992188 207.594726562 c 0
120.336914062 394.431640625 m 0
 141.958984375 397.9921875 146.959960938 394.982421875 155.34375 373.360351562 c 0
 164.286132812 350.297851562 158.0546875 327.955078125 142.6796875 327.955078125 c 0
 108.805664062 327.955078125 88.240234375 389.14453125 120.336914062 394.431640625 c 0
EndSplineSet
EndChar

StartChar: k
Encoding: 107 107 39
Width: 451
Flags: HW
LayerCount: 2
Fore
SplineSet
42.5439453125 361.603515625 m 0
 48.326171875 372.4140625 54.4267578125 375.573242188 62.7236328125 372.053710938 c 0
 69.01953125 369.3828125 80.3818359375 365.345703125 86.8681640625 363.474609375 c 0
 103.791015625 358.592773438 109.264648438 337.458984375 103.499023438 299.260742188 c 0
 98.0595703125 263.224609375 103.173828125 248.458007812 117.138671875 259.883789062 c 0
 122.333007812 264.133789062 158.940429688 283.604492188 199.30078125 303.584960938 c 0
 239.661132812 323.565429688 273.844726562 342.51171875 276.024414062 346.107421875 c 0
 281.744140625 355.544921875 316.678710938 346.107421875 321.37890625 333.85546875 c 0
 325.440429688 323.265625 285.06640625 281.963867188 270.651367188 281.963867188 c 0
 267.486328125 281.963867188 256.59765625 276.438476562 246.5078125 269.7109375 c 0
 229.209960938 258.1796875 228.977539062 257.141601562 242.543945312 252.053710938 c 0
 250.49609375 249.071289062 265.9609375 227.909179688 277.041015625 204.846679688 c 0
 299.201171875 158.720703125 383.032226562 26.2080078125 394.616210938 18.99609375 c 0
 405.959960938 11.931640625 403.985351562 -13.490234375 391.732421875 -18.1064453125 c 0
 385.99609375 -20.2685546875 372.633789062 -16.767578125 363.264648438 -10.6494140625 c 0
 353.89453125 -4.5302734375 340.36328125 0.8828125 334.435546875 0.8828125 c 0
 328.341796875 0.8828125 316.875976562 13.4951171875 309.209960938 28.6298828125 c 0
 301.544921875 43.765625 286.903320312 66.2060546875 277 78 c 0
 257.6328125 101.0625 200.7421875 213.975585938 200.7421875 229.350585938 c 0
 200.7421875 241.538085938 186.327148438 240.939453125 169.030273438 228.03515625 c 0
 160.381835938 221.583007812 157.112304688 213.305664062 160.157226562 205.567382812 c 0
 166.890625 188.453125 151.732421875 173.85546875 127.228515625 173.85546875 c 2
 105.606445312 173.85546875 l 1
 109.5703125 92.7744140625 l 2
 111.754882812 48.08984375 115.6640625 -3.8359375 118.27734375 -22.9013671875 c 0
 123.31640625 -59.658203125 116.778320312 -74.1953125 98.3994140625 -67.0947265625 c 0
 72.4365234375 -57.0634765625 57.701171875 30.431640625 45.6826171875 245.927734375 c 0
 43.3515625 287.729492188 39.849609375 327.087890625 37.859375 333.85546875 c 0
 35.84765625 340.694335938 37.91796875 352.955078125 42.5439453125 361.603515625 c 0
EndSplineSet
EndChar

StartChar: l
Encoding: 108 108 40
Width: 222
Flags: HW
LayerCount: 2
Fore
SplineSet
42.31640625 555.512695312 m 0
 55.2900390625 568.485351562 65.66796875 568.604492188 78.640625 555.92578125 c 0
 84.478515625 550.219726562 89.0185546875 545.215820312 89.0185546875 544.486328125 c 0
 89.0185546875 543.772460938 91.9384765625 525.674804688 95.505859375 504.26953125 c 0
 99.1025390625 482.6875 103.33203125 433.567382812 105 394 c 0
 113.44921875 193.56640625 132.557617188 62.0078125 158.041015625 28.8095703125 c 0
 176.9609375 4.162109375 174.34765625 -11.40625 151.2890625 -11.40625 c 0
 127.809570312 -11.40625 98.298828125 26.21484375 89.21484375 67.7294921875 c 0
 78.142578125 118.32421875 62.26953125 271.526367188 63.7451171875 313.56640625 c 0
 64.44921875 333.674804688 63.4267578125 352.498046875 61.4521484375 355.729492188 c 0
 59.505859375 358.9140625 55.8193359375 389.133789062 53.3427734375 422.21484375 c 0
 50.8671875 455.296875 44.9697265625 497.016601562 40.3701171875 513.999023438 c 0
 32.9921875 541.243164062 33.2353515625 546.431640625 42.31640625 555.512695312 c 0
EndSplineSet
EndChar

StartChar: m
Encoding: 109 109 41
Width: 446
Flags: HW
LayerCount: 2
Fore
SplineSet
269.622070312 233.78515625 m 0
 312.14453125 246.84375 359.611328125 229.375 388.8984375 189.889648438 c 0
 415.627929688 153.853515625 414.8046875 15.3076171875 387.8203125 8.31640625 c 0
 367.086914062 2.9453125 362.393554688 11.1513671875 361.462890625 54.39453125 c 0
 360.36328125 105.565429688 347.924804688 144.073242188 328 158 c 0
 300.3203125 177.345703125 282.672851562 171.151367188 246.379882812 129.349609375 c 0
 227.607421875 107.727539062 206.72265625 89.7099609375 200.432617188 89.7099609375 c 0
 194.026367188 89.7099609375 178.702148438 104.124023438 165.954101562 122.141601562 c 0
 140.456054688 158.177734375 130.073242188 161.037109375 108.375976562 137.998046875 c 0
 84.6201171875 112.772460938 80.123046875 71.296875 98.4501953125 46.4658203125 c 0
 113.877929688 25.5654296875 119.12890625 -7.1904296875 108.180664062 -14.228515625 c 0
 104.577148438 -16.544921875 87.279296875 -8.7890625 69.26171875 3.22265625 c 0
 42.5947265625 21.0009765625 36.138671875 29.5849609375 32.9482421875 51.51171875 c 0
 22.2490234375 125.024414062 49.0322265625 189.701171875 96.6484375 205.336914062 c 0
 125.477539062 214.802734375 173.825195312 208.793945312 186.142578125 194.213867188 c 0
 193.189453125 185.873046875 199.3515625 187.872070312 221.694335938 205.745117188 c 0
 236.829101562 217.853515625 257.916992188 230.19140625 269.622070312 233.78515625 c 0
EndSplineSet
EndChar

StartChar: n
Encoding: 110 110 42
Width: 368
Flags: HW
LayerCount: 2
Fore
SplineSet
120.532226562 340.7734375 m 0
 158.716796875 353.611328125 229.770507812 309.756835938 265.372070312 251.37890625 c 0
 292.110351562 207.53515625 311.685546875 137.504882812 311.909179688 84.892578125 c 0
 312.263671875 1.4853515625 314.784179688 45.541015625 315.126953125 -0.5126953125 c 0
 315.337890625 -28.900390625 307.252929688 -36.1884765625 296.748046875 -36.1884765625 c 0
 288.54296875 -36.1884765625 283.415039062 -30.783203125 283.415039062 -22.134765625 c 0
 283.415039062 -14.20703125 280.2734375 -6.1953125 276.208007812 -3.755859375 c 0
 272.203125 -1.353515625 269 14.982421875 269 33 c 0
 269 80.568359375 242.2265625 179.331054688 220.9375 210.297851562 c 0
 198.14453125 243.451171875 157.13671875 275.571289062 141.432617188 272.571289062 c 0
 126.1640625 269.655273438 98.87109375 216.063476562 88.796875 169.216796875 c 0
 82.6552734375 140.657226562 83.3037109375 121.2890625 91.703125 82.3701171875 c 0
 101.658203125 36.244140625 101.543945312 31.5380859375 90.26171875 22.91015625 c 0
 83.400390625 17.6630859375 70.0810546875 14.4921875 59.9912109375 15.703125 c 0
 45.126953125 17.4873046875 41.1005859375 22.91015625 36.9833984375 46.6943359375 c 0
 20.5185546875 141.829101562 38.9091796875 243.306640625 82.9599609375 300.387695312 c 0
 99.0908203125 321.2890625 115.708984375 339.151367188 120.532226562 340.7734375 c 0
EndSplineSet
EndChar

StartChar: p
Encoding: 112 112 43
Width: 348
Flags: HW
LayerCount: 2
Fore
SplineSet
128.405273438 245.790039062 m 0
 190.387695312 262.299804688 239.384765625 249.784179688 291.288085938 204.18359375 c 0
 315.439453125 182.96484375 317.955078125 177.151367188 317.955078125 142.556640625 c 0
 317.955078125 64.044921875 243 -3.4609375 163 3 c 0
 137.774414062 5.0380859375 130.487304688 3.2177734375 130.20703125 -5.19140625 c 0
 130.009765625 -11.12109375 129.684570312 -72.9384765625 129.486328125 -142.127929688 c 0
 129.2890625 -211.317382812 126.522673498 -284.521362145 123.360351562 -304.290039062 c 0
 113.5791053 -365.435710227 101.44140625 -396.740234375 92 -396.740234375 c 3
 81.0126953125 -396.740234375 73.6765343076 -349.167107597 77.955078125 -250.443359375 c 0
 83.8705681391 -113.948474275 77.7900390625 -24.6865234375 69.3154296875 -3.6865234375 c 0
 62.98046875 12.0107421875 40.1484375 21.404296875 29.4453125 34.4482421875 c 0
 16.2958984375 50.4736328125 11.734375 127.421875 22.3955078125 153.3671875 c 0
 34.966796875 183.963867188 95.97265625 237.150390625 128.405273438 245.790039062 c 0
235.79296875 176.673828125 m 0
 187.504882812 207.374023438 134.181640625 200.44140625 95.3310546875 158.412109375 c 2
 78.67578125 140.39453125 l 1
 93.810546875 132.106445312 l 2
 102.891601562 127.1328125 108.946289062 116.610351562 108.946289062 105.799804688 c 0
 108.946289062 76.970703125 120.577148438 61.892578125 146.423828125 57.21484375 c 0
 205.522460938 46.5185546875 267.624023438 85.9990234375 267.056640625 133.908203125 c 0
 266.828125 153.216796875 261.739257812 160.178710938 235.79296875 176.673828125 c 0
EndSplineSet
EndChar

StartChar: r
Encoding: 114 114 45
Width: 366
Flags: HW
LayerCount: 2
Fore
SplineSet
78.748046875 69.267578125 m 24
 66.6044921875 86.619140625 61.962890625 88.140625 45.9306640625 110.483398438 c 0
 14.9013671875 153.7265625 11.3740234375 172.75390625 28.294921875 205.618164062 c 0
 41.8427734375 231.932617188 56.1533203125 239.724609375 112.369140625 251.3984375 c 0
 159.759765625 261.23828125 201.739257812 260.364257812 273.08984375 248.051757812 c 0
 325.703125 238.97265625 337.901367188 232.590820312 332.15625 217.150390625 c 0
 328.555664062 207.475585938 314.170898438 205.516601562 242.8203125 204.986328125 c 0
 144.081054688 204.251953125 131.118164062 202.4921875 103 186 c 0
 69.70703125 166.471679688 77.0537109375 142.90625 133.270507812 88.9091796875 c 0
 152.729492188 70.2177734375 168.5859375 50.1337890625 168.5859375 44.1767578125 c 0
 168.5859375 30.1806640625 133.270507812 2.615234375 118.85546875 5.361328125 c 0
 112.868164062 6.501953125 105.311523438 17.87109375 101.918945312 30.84375 c 0
 98.5263671875 43.81640625 88.6044921875 55.619140625 78.748046875 69.267578125 c 24
EndSplineSet
EndChar

StartChar: t
Encoding: 116 116 46
Width: 372
Flags: HW
LayerCount: 2
Fore
SplineSet
304.8828125 265.783203125 m 0
 276.775390625 257.551757812 240.069335938 253.01953125 222 248 c 0
 189.567382812 238.991210938 189.567382812 238.991210938 191.729492188 209.44140625 c 0
 192.921875 193.151367188 200.500976562 154.666015625 208.62109375 123.67578125 c 0
 225.427734375 59.53125 229.145507812 12.11328125 217.67578125 8.189453125 c 0
 213.447265625 6.7431640625 202.180664062 11.69921875 193.53125 18.810546875 c 0
 181.573242188 28.642578125 173.814453125 49.0810546875 163.982421875 96.6484375 c 0
 156.682617188 131.963867188 150.485351562 174.198242188 150.288085938 189.981445312 c 0
 150.08984375 205.837890625 147.49609375 222.540039062 144.522460938 227.098632812 c 0
 141.560546875 231.640625 115.333984375 237.1171875 86.5048828125 239.213867188 c 0
 30.2880859375 243.301757812 20.1982421875 246.77734375 20.1982421875 262.053710938 c 0
 20.1982421875 277.89453125 34.6123046875 283.301757812 87.2255859375 287.19921875 c 2
 136.955078125 290.8828125 l 1
 135.874023438 377.369140625 l 2
 135.279296875 424.936523438 132.208984375 484.936523438 129.05078125 510.702148438 c 0
 121.982421875 568.360351562 124.3828125 575.567382812 150.6484375 575.567382812 c 0
 161.459960938 575.567382812 173.547851562 571.217773438 176.684570312 566.198242188 c 0
 181.467773438 558.545898438 185.515625 455.20703125 185.859375 331.963867188 c 2
 185.963867188 294.486328125 l 1
 210.46875 294.486328125 l 2
 224.110351562 294.486328125 250.419921875 297.924804688 269.927734375 301.693359375 c 0
 286.859375 304.963867188 352.859375 319.963867188 352.859375 297.963867188 c 3
 352.859375 280.758789062 332.991210938 274.015625 304.8828125 265.783203125 c 0
EndSplineSet
EndChar

StartChar: q
Encoding: 113 113 47
Width: 408
Flags: HW
LayerCount: 2
Fore
SplineSet
131.887695312 212.935546875 m 0
 169.94140625 225.361328125 189.544921875 223.545898438 229.905273438 203.858398438 c 0
 250.806640625 193.662109375 271.204101562 187.182617188 274.950195312 189.548828125 c 0
 278.659179688 191.891601562 289.725585938 195.373046875 299.094726562 197.145507812 c 0
 333.09375 203.578125 334.840820312 192.431640625 330 0 c 0
 325.9921875 -159.279296875 330.875976562 -261.69140625 343.05859375 -273.874023438 c 0
 350.490234375 -281.305664062 390.8828125 -235.67578125 413.876953125 -193.874023438 c 0
 456.452148438 -116.4765625 475.74609375 -169.370117188 435.171875 -252.252929688 c 0
 409.76953125 -304.14453125 375.301757812 -338.177734375 341.6171875 -344.627929688 c 0
 306.301757812 -351.389648438 292.90234375 -341.288085938 291.741210938 -307.02734375 c 0
 289.883789062 -252.252929688 280.706054688 -91.07421875 278.033203125 -66.306640625 c 0
 276.510742188 -52.2021484375 275.15234375 -26.306640625 274.950195312 -7.568359375 c 2
 274.58984375 25.9453125 l 1
 251.52734375 14.1025390625 l 2
 217.024414062 -3.615234375 114.58984375 -2.2587890625 77.11328125 16.412109375 c 0
 7.923828125 50.8818359375 5.298828125 106.125976562 69.9052734375 168.083007812 c 0
 91.52734375 188.817382812 119.075195312 208.751953125 131.887695312 212.935546875 c 0
232.067382812 158.868164062 m 0
 173.689453125 179.6328125 149.041015625 175.313476562 102.337890625 136.133789062 c 0
 67.0224609375 106.506835938 64.09765625 85.416015625 92.248046875 63.37109375 c 0
 109.828125 49.603515625 119.99609375 47.892578125 171.166992188 50.08984375 c 0
 221.6171875 52.255859375 232.549804688 55.052734375 248.64453125 69.9091796875 c 0
 262.8125 82.98828125 267.3828125 94.4140625 267.3828125 116.756835938 c 0
 267.3828125 145.703125 266.662109375 146.5625 232.067382812 158.868164062 c 0
EndSplineSet
EndChar

StartChar: u
Encoding: 117 117 48
Width: 304
Flags: HW
LayerCount: 2
Fore
SplineSet
167.604492188 237.162109375 m 0
 191.20703125 265.484375 237.069335938 232.116210938 257.748046875 171.576171875 c 0
 272.763671875 127.612304688 272.344726562 112.857421875 255 75 c 0
 223.630859375 6.53125 168.717773438 -20.3037109375 125.5625 11.74609375 c 0
 112.588867188 21.3798828125 98.0849609375 38.3330078125 92.4091796875 50.4951171875 c 0
 86.9052734375 62.2890625 72.654296875 93.73828125 61.0576171875 119.684570312 c 0
 49.4609375 145.629882812 36.1923828125 169.544921875 31.8681640625 172.296875 c 0
 27.6962890625 174.952148438 23.9404296875 183.828125 23.9404296875 191.03515625 c 0
 23.9404296875 222.225585938 88.603515625 198.963867188 102.075195312 162.927734375 c 0
 106.772460938 150.360351562 114.095703125 130.495117188 118.813476562 117.522460938 c 0
 134.014648438 75.720703125 146.833007812 61.3056640625 168.805664062 61.3056640625 c 0
 225.021484375 61.3056640625 228.110351562 170.122070312 173.129882812 213.6484375 c 0
 160.15625 223.91796875 159.3671875 227.27734375 167.604492188 237.162109375 c 0
EndSplineSet
EndChar

StartChar: w
Encoding: 119 119 49
Width: 480
Flags: HW
LayerCount: 2
Fore
SplineSet
291 343 m 0
 311.321289062 357.958007812 331.840820312 339.756835938 385.654296875 259.036132812 c 0
 429.858398438 192.729492188 433.932617188 183.41796875 436.584960938 142.639648438 c 0
 439.303710938 100.837890625 438.237304688 97.1435546875 417.846679688 77.7333984375 c 0
 385.026367188 46.490234375 335.684570312 43.0849609375 289.55859375 68.87890625 c 0
 260.008789062 85.4033203125 253.860351562 86.701171875 247.396484375 77.7744140625 c 0
 243.283203125 72.0947265625 229.134765625 52.1884765625 216.405273438 34.1708984375 c 0
 196.545898438 6.0625 189.252929688 1.017578125 168.477539062 1.017578125 c 0
 120.939453125 1.017578125 87.8349609375 29.1259765625 44.546875 106.243164062 c 0
 20.6787109375 148.765625 18.83984375 155.606445312 27.2158203125 170.747070312 c 0
 32.3994140625 180.1171875 40.44921875 189.18359375 45.234375 191.041015625 c 0
 57.5810546875 195.83203125 84.8740234375 176.153320312 84.8740234375 162.458984375 c 0
 84.8740234375 132.909179688 147.953125 63.103515625 170.639648438 67.546875 c 0
 188.657226562 71.076171875 215.021484375 124.260742188 210.185546875 147.32421875 c 0
 207.314453125 161.017578125 209.943359375 171.90625 218.364257812 181.198242188 c 0
 236.110351562 200.780273438 255.760742188 198.495117188 267.95703125 175.432617188 c 0
 280.81640625 151.116210938 303.251953125 132.01171875 334.243164062 118.986328125 c 0
 372.077148438 103.084960938 385.354492188 114.891601562 381.509765625 161.017578125 c 0
 380.37109375 174.684570312 323.745117188 264.081054688 302.53125 285.702148438 c 0
 280.610351562 308.044921875 275.82421875 331.828125 291 343 c 0
EndSplineSet
EndChar

StartChar: x
Encoding: 120 120 50
Width: 432
Flags: HW
LayerCount: 2
Fore
SplineSet
283 266 m 0
 334.170898438 313.939453125 356.475585938 330.235351562 371.288085938 330.50390625 c 0
 387.14453125 330.79296875 391.108398438 327.405273438 391.108398438 313.567382812 c 0
 391.108398438 300.987304688 375.97265625 282.81640625 335.612304688 246.940429688 c 0
 271.46875 189.923828125 254.795898438 171.932617188 254.42578125 159.333007812 c 0
 254.286132812 154.581054688 268.946289062 141.754882812 286.963867188 130.864257812 c 0
 310.748046875 116.489257812 319.163085938 107.084960938 317.594726562 96.6298828125 c 0
 315.8203125 84.802734375 310.387695312 82.5390625 287.32421875 84.017578125 c 0
 272.189453125 84.98828125 253.89453125 90.017578125 247.684570312 94.9150390625 c 0
 210.876953125 123.946289062 205.162109375 123.759765625 167.684570312 92.2919921875 c 0
 147.504882812 75.3486328125 123.67578125 51.5712890625 113.52734375 38.251953125 c 0
 93.2099609375 11.5849609375 78.2021484375 7.978515625 58.8564453125 25.1142578125 c 0
 40.3271484375 41.525390625 48.765625 58.2666015625 97.0546875 100.890625 c 0
 169.125976562 164.506835938 166.4140625 157.995117188 133.08984375 187.3984375 c 0
 116.513671875 202.025390625 91.0830078125 219.650390625 76.8740234375 226.360351562 c 0
 34.3515625 246.440429688 30.9599609375 287.62109375 71.8291015625 287.62109375 c 0
 101.349609375 287.62109375 137.415039062 268.322265625 172.008789062 234.013671875 c 0
 190.02734375 216.14453125 207.30078125 201.299804688 209.846679688 201.495117188 c 0
 212.411132812 201.692382812 245.522460938 230.889648438 283 266 c 0
EndSplineSet
EndChar

StartChar: y
Encoding: 121 121 51
Width: 418
Flags: HW
LayerCount: 2
Fore
SplineSet
65 62 m 0
 62.5999517922 65.200064277 54.5953748011 80.0535274611 48.5537109375 90.865234375 c 0
 34.4580078125 116.08984375 21.947265625 200.854492188 30.0458984375 216.270507812 c 0
 45.5498046875 245.783203125 87.21875 232.125976562 87.21875 197.53125 c 0
 87.21875 166.541015625 102.368164062 120.618164062 120.981445312 95.189453125 c 0
 135.095703125 75.9052734375 143.434570312 71.4052734375 165.056640625 71.4052734375 c 0
 198.209960938 71.4052734375 236.8828125 93.748046875 242.40234375 116.08984375 c 0
 245.064453125 126.865234375 238.803710938 147.801757812 224.515625 175.91015625 c 0
 212.42578125 199.693359375 202.534179688 224.666992188 202.534179688 231.405273438 c 0
 202.534179688 247.568359375 229.200195312 265.479492188 246.498046875 260.93359375 c 0
 263.794921875 256.388671875 303.202148438 211.528320312 304.092773438 195.369140625 c 0
 305.696289062 166.286132812 312.655273438 141.315429688 329 106 c 0
 338.672851562 85.099609375 346.677734375 63.72265625 346.677734375 58.79296875 c 0
 346.677734375 53.748046875 349.690429688 49.7841796875 353.524414062 49.7841796875 c 0
 357.4375 49.7841796875 360.0625 44.37890625 359.651367188 37.1708984375 c 0
 359.247070312 30.1083984375 367.996311219 9.57285168182 373.705078125 -11.4775390625 c 0
 395 -90 436 -218 411.859375 -288.8828125 c 0
 397.946214856 -329.735272691 383.788085938 -338.548828125 351.55859375 -357.665039062 c 0
 282.407226562 -398.681640625 192.279296875 -403.732421875 104.3515625 -371.516601562 c 0
 88.49609375 -365.708007812 71.306640625 -360.810546875 66.1533203125 -360.635742188 c 0
 49.1474609375 -360.055664062 -31.8642578125 -316.908203125 -52.044921875 -297.682617188 c 0
 -77.2705078125 -273.650390625 -84.0126953125 -246.616210938 -68.62109375 -231.224609375 c 0
 -58.2060546875 -220.809570312 -55.1884765625 -221.85546875 -37.439453125 -242.036132812 c 0
 -10.232421875 -272.969726562 11.37890625 -284.798828125 86.333984375 -309.783203125 c 0
 187.955078125 -343.657226562 210.938476562 -347.323242188 263.630859375 -338.060546875 c 0
 355.045898438 -321.991210938 382.126953125 -282.396484375 366.770507812 -187.260742188 c 0
 362.000976562 -157.711914062 354.790039062 -130.462890625 353 -126 c 0
 319.286132812 -41.927734375 332.515332416 -75.4997122068 303.6875 2.9375 c 0
 300.685546875 11.10546875 295.485351562 26.720703125 291.6875 38.97265625 c 0
 283.643554688 64.9189453125 266.595703125 67.369140625 256.587890625 44.0185546875 c 0
 250.01953125 28.69140625 215.506835938 13.748046875 186.677734375 13.748046875 c 0
 180.19140625 13.748046875 172.556640625 10.6953125 170.454101562 7.26171875 c 0
 164.81640625 -1.9482421875 117.489305851 10.2549361238 100.912109375 25.1923828125 c 0
 90.822265625 34.2841796875 71 54 65 62 c 0
EndSplineSet
EndChar

StartChar: z
Encoding: 122 122 52
Width: 476
Flags: HW
LayerCount: 2
Fore
SplineSet
434.045898438 20.7041015625 m 0
 421.473632812 10.1708984375 376.387695312 4.5146484375 269 0 c 0
 190.44140625 -3.302734375 171.93359375 -1.896484375 144.315429688 9.4765625 c 0
 91.0947265625 31.390625 88.81640625 53.05859375 132.233398438 124.41015625 c 0
 162.0546875 173.418945312 166.41796875 190.391601562 150.081054688 193.842773438 c 0
 137.76953125 196.444335938 85.216796875 188.896484375 59.9912109375 180.904296875 c 0
 51.98046875 178.366210938 43.498046875 183.508789062 35.4873046875 195.76171875 c 0
 24.1767578125 213.05859375 24.1494140625 215.442382812 35.126953125 226.751953125 c 0
 41.693359375 233.518554688 68.6396484375 242.608398438 95.306640625 247.052734375 c 0
 199.811523438 264.469726562 220.296875 257.91796875 221.875976562 206.572265625 c 0
 222.58984375 183.372070312 216.103515625 160.0859375 199.090820312 124.770507812 c 0
 185.896484375 97.3828125 177.232421875 73.4755859375 179.630859375 71.076171875 c 0
 183.955078125 66.751953125 408.8203125 56.16015625 413.865234375 60.04296875 c 0
 415.0234375 60.9345703125 438 56 438 45 c 27
 438 35 440.94921875 26.48828125 434.045898438 20.7041015625 c 0
EndSplineSet
EndChar
